<mxfile host="app.diagrams.net" modified="2023-12-10T21:48:12.220Z" agent="Mozilla/5.0 (X11; Linux x86_64; rv:120.0) Gecko/20100101 Firefox/120.0" etag="I4XHbIil0KwPEeWhogYL" version="22.1.7" type="github">
  <diagram name="Workflow" id="qMdr1BjF1BOdtOG6u2qB">
    <mxGraphModel dx="963" dy="526" grid="1" gridSize="10" guides="1" tooltips="1" connect="1" arrows="1" fold="1" page="1" pageScale="1" pageWidth="1169" pageHeight="827" math="0" shadow="0">
      <root>
        <mxCell id="RZr8qnZTbfW7pYuDrzdx-0" />
        <mxCell id="RZr8qnZTbfW7pYuDrzdx-1" parent="RZr8qnZTbfW7pYuDrzdx-0" />
        <mxCell id="RZr8qnZTbfW7pYuDrzdx-2" value="" style="group;fillColor=#f5f5f5;strokeColor=#666666;fillStyle=auto;fontColor=#333333;container=0;" vertex="1" connectable="0" parent="RZr8qnZTbfW7pYuDrzdx-1">
          <mxGeometry x="40" y="40" width="680" height="110.5" as="geometry" />
        </mxCell>
        <mxCell id="RZr8qnZTbfW7pYuDrzdx-3" value="" style="rounded=0;whiteSpace=wrap;html=1;align=center;fillColor=#FFF2CC;strokeColor=#FFF2CC;" vertex="1" parent="RZr8qnZTbfW7pYuDrzdx-1">
          <mxGeometry x="60" y="40.25" width="660" height="110" as="geometry" />
        </mxCell>
        <mxCell id="RZr8qnZTbfW7pYuDrzdx-4" value="&lt;b&gt;&lt;font color=&quot;#ffffff&quot;&gt;Dados&lt;/font&gt;&lt;/b&gt;" style="text;html=1;strokeColor=#F0A30A;fillColor=#F0A30A;align=center;verticalAlign=middle;whiteSpace=wrap;rounded=0;rotation=-90;fontColor=#000000;" vertex="1" parent="RZr8qnZTbfW7pYuDrzdx-1">
          <mxGeometry x="-5.25" y="85.25" width="110.5" height="20" as="geometry" />
        </mxCell>
        <mxCell id="RZr8qnZTbfW7pYuDrzdx-5" value="" style="rounded=0;whiteSpace=wrap;html=1;align=center;fillColor=#DAE8FC;strokeColor=#DAE8FC;" vertex="1" parent="RZr8qnZTbfW7pYuDrzdx-1">
          <mxGeometry x="60" y="150.5" width="660" height="110" as="geometry" />
        </mxCell>
        <mxCell id="RZr8qnZTbfW7pYuDrzdx-6" value="&lt;font color=&quot;#ffffff&quot;&gt;&lt;b&gt;Montagem&lt;/b&gt;&lt;/font&gt;" style="text;html=1;strokeColor=#647687;fillColor=#647687;align=center;verticalAlign=middle;whiteSpace=wrap;rounded=0;rotation=-90;fontColor=#000000;" vertex="1" parent="RZr8qnZTbfW7pYuDrzdx-1">
          <mxGeometry x="-5.25" y="195.5" width="110.5" height="20" as="geometry" />
        </mxCell>
        <mxCell id="RZr8qnZTbfW7pYuDrzdx-7" value="" style="rounded=0;whiteSpace=wrap;html=1;align=center;fillColor=#D5E8D4;strokeColor=#D5E8D4;" vertex="1" parent="RZr8qnZTbfW7pYuDrzdx-1">
          <mxGeometry x="60" y="260.5" width="240" height="289.5" as="geometry" />
        </mxCell>
        <mxCell id="RZr8qnZTbfW7pYuDrzdx-8" value="&lt;div&gt;&lt;font color=&quot;#ffffff&quot;&gt;&lt;b&gt;Validação&lt;/b&gt;&lt;/font&gt;&lt;/div&gt;" style="text;html=1;strokeColor=#6D8764;fillColor=#6D8764;align=center;verticalAlign=middle;whiteSpace=wrap;rounded=0;rotation=-90;fontColor=#000000;" vertex="1" parent="RZr8qnZTbfW7pYuDrzdx-1">
          <mxGeometry x="-94.93" y="395.45" width="289.88" height="20" as="geometry" />
        </mxCell>
        <mxCell id="RZr8qnZTbfW7pYuDrzdx-9" value="" style="group" vertex="1" connectable="0" parent="RZr8qnZTbfW7pYuDrzdx-1">
          <mxGeometry x="95" y="169.5" width="170" height="72" as="geometry" />
        </mxCell>
        <mxCell id="RZr8qnZTbfW7pYuDrzdx-10" value="" style="rounded=0;whiteSpace=wrap;html=1;arcSize=5;fontStyle=1;fillColor=#e1d5e7;strokeColor=none;" vertex="1" parent="RZr8qnZTbfW7pYuDrzdx-9">
          <mxGeometry width="170" height="60" as="geometry" />
        </mxCell>
        <mxCell id="RZr8qnZTbfW7pYuDrzdx-11" value="&lt;font style=&quot;font-size: 9px;&quot; color=&quot;#ffffff&quot;&gt;&lt;b&gt;&lt;font style=&quot;font-size: 9px;&quot;&gt;Montagem &lt;i&gt;de novo&lt;br&gt;&lt;/i&gt;&lt;/font&gt;&lt;/b&gt;&lt;/font&gt;" style="rounded=0;whiteSpace=wrap;html=1;arcSize=5;fontStyle=1;fillColor=#9673A6;strokeColor=none;" vertex="1" parent="RZr8qnZTbfW7pYuDrzdx-9">
          <mxGeometry y="60" width="170" height="12" as="geometry" />
        </mxCell>
        <mxCell id="RZr8qnZTbfW7pYuDrzdx-12" value="&lt;font style=&quot;font-size: 11px;&quot;&gt;Trinity&lt;/font&gt;" style="rounded=1;whiteSpace=wrap;html=1;fontStyle=1;fillColor=#fff2cc;strokeColor=#FFF2CC;" vertex="1" parent="RZr8qnZTbfW7pYuDrzdx-9">
          <mxGeometry x="10" y="10" width="63.52" height="20" as="geometry" />
        </mxCell>
        <mxCell id="RZr8qnZTbfW7pYuDrzdx-13" value="&lt;font style=&quot;font-size: 11px;&quot;&gt;TransRate&lt;/font&gt;" style="rounded=1;whiteSpace=wrap;html=1;fontStyle=1;fillColor=#FFF2CC;strokeColor=#FFF2CC;" vertex="1" parent="RZr8qnZTbfW7pYuDrzdx-9">
          <mxGeometry x="83.52" y="10" width="76.48" height="20" as="geometry" />
        </mxCell>
        <mxCell id="YXb5prMk_ECp3hikTrHk-0" value="&lt;font style=&quot;font-size: 11px;&quot;&gt;BUSCO&lt;/font&gt;" style="rounded=1;whiteSpace=wrap;html=1;fontStyle=1;fillColor=#FFF2CC;strokeColor=#FFF2CC;" vertex="1" parent="RZr8qnZTbfW7pYuDrzdx-9">
          <mxGeometry x="83.52000000000001" y="30.5" width="76.48" height="19.5" as="geometry" />
        </mxCell>
        <mxCell id="YXb5prMk_ECp3hikTrHk-1" value="&lt;font style=&quot;font-size: 11px;&quot;&gt;IDBA-tran&lt;/font&gt;" style="rounded=1;whiteSpace=wrap;html=1;fontStyle=1;fillColor=#fff2cc;strokeColor=#FFF2CC;" vertex="1" parent="RZr8qnZTbfW7pYuDrzdx-9">
          <mxGeometry x="10" y="30.5" width="63.52" height="20" as="geometry" />
        </mxCell>
        <mxCell id="RZr8qnZTbfW7pYuDrzdx-14" value="" style="group" vertex="1" connectable="0" parent="RZr8qnZTbfW7pYuDrzdx-1">
          <mxGeometry x="95" y="270" width="170" height="72" as="geometry" />
        </mxCell>
        <mxCell id="RZr8qnZTbfW7pYuDrzdx-15" value="" style="rounded=0;whiteSpace=wrap;html=1;arcSize=5;fontStyle=1;fillColor=#F8CECC;strokeColor=none;" vertex="1" parent="RZr8qnZTbfW7pYuDrzdx-14">
          <mxGeometry width="170" height="60" as="geometry" />
        </mxCell>
        <mxCell id="RZr8qnZTbfW7pYuDrzdx-17" value="&lt;font style=&quot;font-size: 9px;&quot; color=&quot;#ffffff&quot;&gt;Remoção de redundância&lt;br&gt;&lt;/font&gt;" style="rounded=0;whiteSpace=wrap;html=1;arcSize=5;fontStyle=1;fillColor=#B85450;strokeColor=none;" vertex="1" parent="RZr8qnZTbfW7pYuDrzdx-14">
          <mxGeometry y="60" width="170" height="12" as="geometry" />
        </mxCell>
        <mxCell id="RZr8qnZTbfW7pYuDrzdx-18" value="&lt;font style=&quot;font-size: 11px;&quot;&gt;CAP3&lt;/font&gt;" style="rounded=1;whiteSpace=wrap;html=1;fontStyle=1;fillColor=#fff2cc;strokeColor=#FFF2CC;" vertex="1" parent="RZr8qnZTbfW7pYuDrzdx-14">
          <mxGeometry x="10" y="10" width="63.52" height="40" as="geometry" />
        </mxCell>
        <mxCell id="RZr8qnZTbfW7pYuDrzdx-19" value="&lt;font style=&quot;font-size: 11px;&quot;&gt;CD-HIT&lt;/font&gt;" style="rounded=1;whiteSpace=wrap;html=1;fontStyle=1;fillColor=#FFF2CC;strokeColor=#FFF2CC;" vertex="1" parent="RZr8qnZTbfW7pYuDrzdx-14">
          <mxGeometry x="83.52000000000001" y="10" width="76.48" height="40" as="geometry" />
        </mxCell>
        <mxCell id="RZr8qnZTbfW7pYuDrzdx-21" value="" style="rounded=0;whiteSpace=wrap;html=1;align=center;fillColor=#ffcccc;strokeColor=none;" vertex="1" parent="RZr8qnZTbfW7pYuDrzdx-1">
          <mxGeometry x="300" y="260.7" width="400" height="289.5" as="geometry" />
        </mxCell>
        <mxCell id="RZr8qnZTbfW7pYuDrzdx-22" value="&lt;b&gt;&lt;font color=&quot;#ffffff&quot;&gt;Expressão diferencial e redes de interação&lt;br&gt;&lt;/font&gt;&lt;/b&gt;" style="text;html=1;strokeColor=none;fillColor=#ff91af;align=center;verticalAlign=middle;whiteSpace=wrap;rounded=0;rotation=-90;fontColor=#000000;" vertex="1" parent="RZr8qnZTbfW7pYuDrzdx-1">
          <mxGeometry x="565.07" y="395.45" width="289.88" height="20" as="geometry" />
        </mxCell>
        <mxCell id="RZr8qnZTbfW7pYuDrzdx-23" value="" style="group" vertex="1" connectable="0" parent="RZr8qnZTbfW7pYuDrzdx-1">
          <mxGeometry x="95" y="361.88" width="185" height="77" as="geometry" />
        </mxCell>
        <mxCell id="RZr8qnZTbfW7pYuDrzdx-24" value="" style="group" vertex="1" connectable="0" parent="RZr8qnZTbfW7pYuDrzdx-23">
          <mxGeometry width="170" height="72" as="geometry" />
        </mxCell>
        <mxCell id="RZr8qnZTbfW7pYuDrzdx-25" value="" style="rounded=0;whiteSpace=wrap;html=1;arcSize=5;fontStyle=1;fillColor=#F8CECC;strokeColor=none;" vertex="1" parent="RZr8qnZTbfW7pYuDrzdx-24">
          <mxGeometry width="170" height="60" as="geometry" />
        </mxCell>
        <mxCell id="RZr8qnZTbfW7pYuDrzdx-26" value="&lt;font style=&quot;font-size: 9px;&quot; color=&quot;#ffffff&quot;&gt;Remoção de artefatos&lt;br&gt;&lt;/font&gt;" style="rounded=0;whiteSpace=wrap;html=1;arcSize=5;fontStyle=1;fillColor=#B85450;strokeColor=none;" vertex="1" parent="RZr8qnZTbfW7pYuDrzdx-24">
          <mxGeometry y="60" width="170" height="12" as="geometry" />
        </mxCell>
        <mxCell id="RZr8qnZTbfW7pYuDrzdx-27" value="&lt;font style=&quot;font-size: 11px;&quot;&gt;HMMER&lt;/font&gt;" style="rounded=1;whiteSpace=wrap;html=1;fontStyle=1;fillColor=#fff2cc;strokeColor=#FFF2CC;" vertex="1" parent="RZr8qnZTbfW7pYuDrzdx-24">
          <mxGeometry x="10" y="10" width="63.52" height="40" as="geometry" />
        </mxCell>
        <mxCell id="RZr8qnZTbfW7pYuDrzdx-28" value="&lt;font style=&quot;font-size: 11px;&quot;&gt;Minimap2&lt;/font&gt;" style="rounded=1;whiteSpace=wrap;html=1;fontStyle=1;fillColor=#FFF2CC;strokeColor=#FFF2CC;" vertex="1" parent="RZr8qnZTbfW7pYuDrzdx-24">
          <mxGeometry x="83.52000000000001" y="10" width="76.48" height="40" as="geometry" />
        </mxCell>
        <mxCell id="RZr8qnZTbfW7pYuDrzdx-29" value="&lt;font style=&quot;font-size: 8px;&quot;&gt;TriTrypDB&lt;/font&gt;" style="shape=cylinder3;whiteSpace=wrap;html=1;boundedLbl=1;backgroundOutline=1;size=5;fontSize=10;fillColor=#cce5ff;strokeColor=#36393d;aspect=fixed;" vertex="1" parent="RZr8qnZTbfW7pYuDrzdx-23">
          <mxGeometry x="140" y="50" width="45" height="27" as="geometry" />
        </mxCell>
        <mxCell id="RZr8qnZTbfW7pYuDrzdx-30" value="" style="shape=image;verticalLabelPosition=bottom;labelBackgroundColor=default;verticalAlign=top;aspect=fixed;imageAspect=0;image=data:image/svg+xml,PHN2ZyB2aWV3Qm94PSIwIDAgODE0LjAzNSAzOTIuODQ0IiB2ZXJzaW9uPSIxLjAiIHhtbG5zPSJodHRwOi8vd3d3LnczLm9yZy8yMDAwL3N2ZyI+PGRlZnM+PGNsaXBQYXRoIGlkPSJhIiBjbGlwUGF0aFVuaXRzPSJ1c2VyU3BhY2VPblVzZSI+PHBhdGggZD0iTTQuNDc3IDEwLjk1M2g4MTMuMTA3djM5My4xMjJINC40Nzd6Ii8+PC9jbGlwUGF0aD48L2RlZnM+PHBhdGggZmlsbC1ydWxlPSJldmVub2RkIiBmaWxsPSIjZjlkODdiIiBkPSJNODEyLjAyOCAzMjEuMDA1YzEwLjQzNC01NS44MDYgNC4xMTctNzYuMzkzLTMyLjctOTkuNS0zNi43NzgtMjMuMTA1LTMyLjY2LTMwLjI2LTIwLjAyOC01NS44MDUgMTIuOTEyLTI1Ljg2NS4yOC03NC41MTUtMTE1LjA5LTc4LjkxMy0xMDkuMDE0LTIxLjE0Ny0xNDAuNTk1IDc1LjMxNS0yMTcuMTkgMTAzLjA5OC04MC43NSAyOS40MjItMTM4LjM5Ni00MS40OTUtMTc2Ljg1My03NS44NzQtMzguNzM2LTM0LjM4LTExNS4wNS03Mi44NzYtMTc0LjM3NC00NC4yNTNDMTYuNDcgOTguMDYgNS40NzcgMTU2LjM0NSAxNS42NzEgMTY1Ljk3OWMxMC40MzMgOS4zMTUgMTkuNzQ4LTYuODc1IDQ1LjU3Mi0xNS4zOUMxNzEuNjE2IDExMy43MyAxNjIuNTggMTg2LjU2NyAyNzguNDcgMjQ1LjEzYzExNi4xMyA1OC4yODUgMjE3Ljc0OCAxNi4yMyAyNjQuNzItNzMuMTE1IDIyLjc4Ni00My45NzQgNTQuNjQ3LTY0LjA0MSA3OS4zNTItNzMuMTE2IDExLjc5My0xLjkxOSA1OC43NjQtOC4yNzUgOTguODYgMTAuNzE0IDI0LjcwNSAxMS41NTMgNDIuNTM0IDMwLjIyMSAyNi45MDMgNTkuMDg0LTE1LjM5IDI4LjYyMi0yLjc1OCA0NC4yOTMgMTQuNTUyIDUzLjg4NyAxNy4wMyA5LjkxNCA1Ni4wMDYgMjguODYzIDQzLjM3MyA3OC42MzItMTIuNjMyIDUwLjA1LTIuMTk4IDEwMi4yNTggNS4yMzcgMTAxLjczOSAxMy40MzItLjg0LTkuNjM0LTI2LjM4NC41Ni04MS45NXoiIGNsaXAtcGF0aD0idXJsKCNhKSIvPjxwYXRoIGZpbGwtcnVsZT0iZXZlbm9kZCIgZmlsbD0iI2VkYzk2ZSIgZD0iTTYxMS42MyA4My4yN2MtMjIuNzg3IDEwLjc1My00OC44NTEgMzAuODItNjguMzYgNjguNDc4LTQ2Ljk3IDg5LjM4Ni0xNDguNTUgMTMxLjcyLTI2NC42NzkgNzMuMTU2LTExNS44OS01OC41NjUtMTA2LjgxNS0xMzEuNDQtMjE3LjE4OC05NC41ODMtMjUuODI1IDguNTE1LTM1LjE3OSAyNS4wMjUtNDUuNjEzIDE1LjM5LS44LS44MzktMS4zNTktMS45MTgtMS45MTgtMy4zMTctMi40NzkgMTEuMjczLTEuMzYgMjAuMTA4IDEuOTE4IDIzLjEwNiAxMC40MzQgOS42MzQgMTkuNzg4LTYuODc2IDQ1LjYxMy0xNS4zOTEgMTEwLjM3My0zNi44NTggMTAxLjI5OCAzNi4wMTggMjE3LjE4OCA5NC41ODMgMTE2LjEzIDU4LjU2NCAyMTcuNzA4IDE2LjIzIDI2NC42OC03My4xMTYgMjIuNzg2LTQzLjczMyA1NC42NDctNjMuODAxIDc5LjM1Mi03My4xNTZtMTkwLjU2NCAyODQuMzA4Yy0uNTYgMC0xLjEyIDAtMS42MzkuMjgtNC4zOTcuMjgtOS42MzQtMTcuNTktMTAuNzEzLTQyLjMzNC0xLjY0IDM0LjY1OSA1LjE5NyA2Mi40MDIgMTAuNzEzIDYyLjE2MiA2LjU1Ni0uNTYgNC4zOTctNy4xNTYgMS42NC0yMC4xMDh6IiBjbGlwLXBhdGg9InVybCgjYSkiLz48cGF0aCBzdHJva2UtbWl0ZXJsaW1pdD0iOCIgc3Ryb2tlLXdpZHRoPSIuNjQiIHN0cm9rZT0iIzM0MzQzNCIgZmlsbD0ibm9uZSIgZD0iTTgxMi4wMjggMzIxLjAwNWMxMC40MzQtNTUuODA2IDQuMTE3LTc2LjM5My0zMi43LTk5LjUtMzYuNzc4LTIzLjEwNS0zMi42Ni0zMC4yNi0yMC4wMjgtNTUuODA1IDEyLjkxMi0yNS44NjUuMjgtNzQuNTE1LTExNS4wOS03OC45MTMtMTA5LjAxNC0yMS4xNDctMTQwLjU5NSA3NS41OTUtMjE3LjE5IDEwMy4wOTgtODAuNzUgMjkuNDIyLTEzOC4zOTYtNDEuNDk1LTE3Ni44NTMtNzUuODc0LTM4LjczNi0zNC4zOC0xMTUuMDUtNzIuODc2LTE3NC4zNzQtNDQuMjUzQzE2LjQ3IDk4LjA2IDUuNDc3IDE1Ni4zNDUgMTUuNjcxIDE2NS45NzljMTAuNDMzIDkuMzE1IDE5Ljc0OC02Ljg3NSA0NS41NzItMTUuMzlDMTcxLjYxNiAxMTMuNzMgMTYyLjU4IDE4Ni41NjcgMjc4LjQ3IDI0NS4xM2MxMTYuMTMgNTguMjg1IDIxNy43NDggMTYuMjMgMjY0LjcyLTczLjExNSAyMi43ODYtNDMuOTc0IDU0LjY0Ny02NC4wNDEgNzkuMzUyLTczLjExNiAxMS43OTMtMS45MTkgNTguNzY0LTguMjc1IDk4Ljg2IDEwLjcxNCAyNC43MDUgMTEuNTUzIDQyLjUzNCAzMC4yMjEgMjYuOTAzIDU5LjA4NC0xNS4zOSAyOC42MjItMi43NTggNDQuMjkzIDE0LjU1MiA1My44ODcgMTcuMDMgOS45MTQgNTYuMDA2IDI4Ljg2MyA0My4zNzMgNzguNjMyLTEyLjYzMiA1MC4wNS0yLjE5OCAxMDIuMjU4IDUuMjM3IDEwMS43MzkgMTMuNDMyLS44NC05LjYzNC0yNi4zODQuNTYtODEuOTUiIGNsaXAtcGF0aD0idXJsKCNhKSIvPjxwYXRoIGZpbGwtcnVsZT0iZXZlbm9kZCIgZmlsbD0iI2NlYTk1ZiIgZD0iTTQ1OS4xMjIgMjIzLjM0NWMxMS43OTMtMy44MzggMTEuNTEzLTcuNzE2IDE0LjgzLTExLjgzMy0zLjMxNyA0LjExNy04LjIzNCA3LjQzNS0xNC4yNyA5LjA3NC0xNS45NSA0LjM5OC0zNS45NzktNy45NTUtNDcuNTMyLTIzLjM0Ni03My41OTUgMTcuMzEtMTI2Ljg4My00Ny41Ny0xNjMuNDItNzkuOTkxLTMxLjAyMi0yNy41MDMtODUuOTQ5LTU3LjQ4NS0xMzcuMDM4LTUzLjg4Ny0uMjggMy44MzctMi4xOTggNi41OTYtNy4xMTUgNy4xNTUtNC4xMTguNTItNy45OTYtMS4xMi0xMS44MzMtNC4xMTctNi4zMTYgMS42MzktMTIuMzUzIDMuNTU4LTE4LjM5IDYuNTk2LTE3LjAyOSA3Ljk1NS0yOS45NCAxOC42NjgtMzkuODE1IDI5Ljk0Mi4yOCAzLjAzOC0uMjggNS43NTYtMS45MTkgOC41MTQtMS4zOTkgMy4wMzktNC4xMTcgMy41OTgtNy40MzUgNC4xMTgtNy4xMTYgMTAuOTkzLTguNTE1IDQwLjk3NS0xMC45OTQgNDkuMjEgMCAwIDMyLjk4LTEwMC4zNCAxMzAuNDgxLTgyLjQ3IDc1Ljc5NCAxMy43NTIgMTE0LjI1MSA4MS4xMTEgMTU4Ljk4NCAxMDUuMDE2IDQ0Ljc3MyAyMy45MDYgNjUuNjQgMjMuMTA2IDc4LjgzMiAyNi45NDQgMTMuMTkyIDMuODM4IDU0LjY0NyAxNi43NSA3Ni42MzQgOS4wNzV6bTE1LjM5LTEyLjM5M2M2LjU1Ni05LjU5NCA2LjgzNi0yMC4wMjggNy4zOTYtMjQuOTg1IDAgMCAzNi41MzgtMzEuMDYgNTUuMjA2LTQ1LjkzMiAxOC4zOS0xNC41NTEgMzQuNjItNDAuNjU1IDExNy4yNS01MS42NDktMS42NC0uMjgtNi4wMzcgMC03LjM5Ni0uMjgtMy4yNzgtLjU2LTcuNDM2IDEuNjQtMTEuNzkzLjUyLTc0LjE1NS0xMC45OTMtMTExLjI1MyAzNC4xLTE1NC4xMDcgNzAuMTE4LjU2IDMwLjIyMS0xLjA3OSA0My42OTMtNi41NTYgNTIuMjA4eiIvPjxwYXRoIGZpbGwtcnVsZT0iZXZlbm9kZCIgZmlsbD0iI2VhYWE3NiIgZD0iTTI3Mi4xMTUgMjA5LjE5M2MtMTAuNjkzIDkuMzU1LTM1LjkxOC0yLjE5OC01Ni40NjYtMjUuOTA0LTIwLjU2Ny0yMy42ODYtMjguNTIyLTUwLjQxLTE3LjgyOS01OS43ODQgMTAuNjk0LTkuMzc0IDM2LjE5OCAyLjE5OSA1Ni43NDYgMjUuOTA0IDIwLjU2NyAyMy42ODYgMjguNTAyIDUwLjQxIDE3LjU1IDU5Ljc4NHoiLz48cGF0aCBmaWxsLXJ1bGU9ImV2ZW5vZGQiIGZpbGw9IiNlMjlmNjEiIGQ9Ik01Ny40NTUgMTM3LjgyNmMtMy44NjctMS4wODktNS41MjYtNy4xMDUtMy41ODgtMTMuMTIyIDEuOTMtNi4wMTYgNi4zNDctOS44NTQgMTAuMjE0LTguNzU0IDMuODY4IDEuMDkgNS41MTcgNi44MzYgMy41ODggMTMuMTIyLTEuOTI5IDYuMDE2LTYuNjI2IDkuODQ0LTEwLjIxNCA4Ljc1NHoiLz48cGF0aCBzdHJva2UtbWl0ZXJsaW1pdD0iOCIgc3Ryb2tlLXdpZHRoPSIuNDgiIHN0cm9rZT0iIzM0MzQzNCIgZmlsbD0ibm9uZSIgZD0iTTI3Mi4xMTUgMjA5LjE5M2MtMTAuNjkzIDkuMzU1LTM1LjkxOC0yLjE5OC01Ni40NjYtMjUuOTA0LTIwLjU2Ny0yMy42ODYtMjguNTIyLTUwLjQxLTE3LjgyOS01OS43ODQgMTAuNjk0LTkuMzc0IDM2LjE5OCAyLjE5OSA1Ni43NDYgMjUuOTA0IDIwLjU2NyAyMy42ODYgMjguNTAyIDUwLjQxIDE3LjU1IDU5Ljc4NE01Ny40NTUgMTM3LjgyNmMtMy44NjctMS4wODktNS41MjYtNy4xMDUtMy41ODgtMTMuMTIyIDEuOTMtNi4wMTYgNi4zNDctOS44NTQgMTAuMjE0LTguNzU0IDMuODY4IDEuMDkgNS41MTcgNi44MzYgMy41ODggMTMuMTIyLTEuOTI5IDYuMDE2LTYuNjI2IDkuODQ0LTEwLjIxNCA4Ljc1NCIvPjxwYXRoIGZpbGwtcnVsZT0iZXZlbm9kZCIgZmlsbD0iI2Q2OTM1YyIgZD0iTTI1Mi4zNjcgMTk2LjQyMWMtMy44MTggMy4wMTgtMTEuMTczLS41NC0xNi4wNy03LjY5NS00Ljg5Ny02Ljg3Ni01Ljk5Ny0xNS4xMTEtMS45LTE3Ljg3IDMuODE5LTIuNzU4IDExLjE1NC41NiAxNi4wNzEgNy42OTYgNS4xNzcgNy4xNTUgNS45NzcgMTUuMTMgMS45IDE3Ljg2OXoiLz48cGF0aCBmaWxsLXJ1bGU9ImV2ZW5vZGQiIGZpbGw9IiNkMGEwYzYiIGQ9Ik02NTUuNDgzIDg4LjA2N3MtMzAuMTgyLS44LTUwLjI1LTE3LjAzYy0yMC4zMDctMTYuMjMtNjEuNDgzLTQwLjE3Ni05MC44NjUtMjYuOTQ0LTI5LjM4MiAxMy4xOTItMzQuODk5IDM0LjEtMzIuNDIgOTUuOTgyIDIuMTk5IDYxLjYwMy0uOCA3My40MzYtMjAuNTg4IDc4LjkxMi0yMS43MDYgNi4wNzctNTEuMzY4LTIxLjcwNy01NS43MjYtNDEuMjU1LTQuNjc3LTE5LjIyOC0xMy43NTItNjYuNTYtNTEuOTI4LTUyLjUyOC0xNC41NTIgNS41MTctMzguNDE3IDMyLjQ2LTUyLjQ0OS0xLjYzOS0xMy45OTEtMzMuODIgMjMuNjI2LTg4LjU4Ni0zNC44NTgtMTA4LjkzNEMyMjYuMzAzLjYgMjE2LjQyOSA1MC45NyAxODQuMDA5IDQ1LjczMmMtNDAuMDk2LTYuODc2LTQ1LjU3My0zNy4xMzctNjUuMDgxLTI0LjIyNS0xOS4yMjggMTMuMjMyIDUuNTE3IDQzLjQ1NC0xMi45MTIgNDUuNjUyLTE4LjY2OSAyLjQ3OS0zNC44Ni00NS42NTItNjguMDc5LTI1LjU0NC0zMy4yMiAyMC4zNDcgNy4xMTYgNDYuNDUyLTMuODM4IDY2LjU2LTQuNjc3IDguNTE0LTIwLjg2Ny0xLjQtMjYuOTQzIDEzLjk5MS02LjMxNyAxNS40MyAxNC41OSAxOC40MjkgOC41MTUgMzkuMzM2IDAgMCAzMi45OC0xMDAuNjU5IDEzMC40NC04Mi43OSA3NS41MTUgMTQuMDMyIDExNC4yNTEgODEuNDMgMTU4Ljk4NCAxMDUuMzM2IDQ0Ljc3MyAyMy45NDYgNjUuNjQgMjMuMTA2IDc4LjgzMiAyNi45ODQgMTMuMTkyIDMuODM4IDU0LjY0NyAxNi40NyA3Ni44NzQgOS41OTQgMjEuOTg2LTYuODc2IDIxLjcwNy0zMC41MDEgMjIuNTQ2LTM4LjIxNyAwIDAgMzYuNDk4LTMwLjc4IDU1LjE2Ny00NS42NTIgMTguNjY4LTE0LjgzIDMyLjE0LTM3LjkzNyAxMTYuOTY5LTQ4LjY5eiIgY2xpcC1wYXRoPSJ1cmwoI2EpIi8+PHBhdGggZmlsbC1ydWxlPSJldmVub2RkIiBmaWxsPSIjZGRhNzhmIiBkPSJNNDYwLjggMjIwLjYyNmM2LjU5Ny0xLjk1OSAxMC45OTQtNS41MTYgMTQuMjcyLTkuNjM0LTMuMjc4IDQuMTE4LTcuNjc1IDYuMzE2LTEzLjcxMiA3Ljk1NS0xNS45NSA0LjY3Ny0zNi4yNTgtOS41OTQtNDcuNzctMjUuMDI1LTczLjU5NiAxNy4zNS0xMjcuMTI0LTQ3LjU3LTE2My4zODItODAuMDMxLTMxLjAyLTI3LjUwMy04NS45MDgtNTcuNDg1LTEzNi45OTctNTMuODg3LS4yNCAzLjgzNy0yLjE1OCA2LjU5Ni03LjExNSA3LjE1NS00LjExOC41Ni03Ljk1NS0xLjM5OS0xMS43OTMtNC4xMTdDODcuOTg3IDY0LjQgODEuOTUgNjYuNiA3NS44NzQgNjkuNjM4Yy0xNi45OSA3Ljk1NS0yOS45MDIgMTguNzA4LTM5Ljc3NiAyOS45ODIuMjQgMi45OTgtLjI4IDUuNzU2LTEuOTE5IDguNTE0LTEuMzk5IDIuNzU5LTQuMTE3IDMuNTU4LTcuNDM1IDQuMTE4LTcuMTE2IDEwLjcxMy0xMS4yMzMgMjEuNzQ3LTEzLjE5MiAzMC44MjEgMi43NTggNC42NzcgNC42NzcgMTAuMTU0IDIuMTk4IDE4LjM5IDAgMCAzMi45OC0xMDAuNjIgMTMwLjQ0MS04Mi43NSA3NS40NzUgMTQuMDMgMTE0LjIxMSA4MS4zOSAxNTguOTQ0IDEwNS4zMzUgNDQuNzMzIDIzLjkwNiA2NS42IDIzLjA2NiA3OC43OTIgMjYuOTQ0IDEzLjE5MiAzLjgzOCA1NC42NDcgMTYuNzUgNzYuODc0IDkuNjM0em0xNS4zOTEtMTEuMDMzYy0uMjguMjgtLjU2LjU2LS44NCAxLjEyLjI4LS41Ni41Ni0uODQuODQtMS4xMnptMCAwYzYuNTU2LTkuNTk0IDYuNTU2LTIxLjk4NyA3LjExNi0yNi45NDQgMCAwIDM2LjUzOC0zMS4wNiA1NS4yMDctNDUuOTMyIDE4LjM4OC0xNC41NTEgMzEuODItMzcuMzc3IDExNC4xNy00OC4xMy0xLjM1OS0uNTItMi45OTgtLjgtNC4zNTctMS4wOC0zLjMxOC0uNTYtNy40MzUtMS4xMi0xMS44MzMtMi4xOTktNzQuMTE1LTEwLjk5My0xMTEuMTcyIDM0LjEtMTU0LjAyNiA3MC4xMTguNTYgMzAuMjYxLS44IDQ1LjY1Mi02LjI3NyA1NC4xNjd6Ii8+PHBhdGggZmlsbC1ydWxlPSJldmVub2RkIiBmaWxsPSIjYmM4OWI3IiBkPSJNNDgxLjcwOCAxNTYuMzQ1czQuNjc3IDUxLjQ1LTEyLjYzMiA2MC4yODRjLTIzLjk0NiAxMi4wNzItNDMuNzc0LTEwLjE5NC00My43NzQtMTAuMTk0czU0LjIwNyAxMi42NzIgNTYuNDA2LTUwLjA5em0tMTEzLjE3MS0zMy4yMnMtMTMuMTcyIDAtMjAuMDI4IDQuMzc4Yy02Ljg3NiA0LjM3Ny0yNi4wODQgMTkuNDA4LTM4LjE3NyA5Ljg1NCAwIDAgNDEuNzM1LTE3Ljc5IDU4LjIwNS0xNC4yMzJ6TTEyMy44MDUgMTkuMjI4cy0xMi44OTIgNC4xMzgtMTIuNjEyIDE4Ljk2OWMuMjggMTQuNTcxIDYuMDM2IDI1LjU2NC0zLjI5OCAyOC41ODMtOS4wNTUgMy4yOTgtMjAuODY4LTEwLjQzNC0yMC44NjgtMTAuNDM0czI3LjcyMy0zNi41NTggMzYuNzc4LTM3LjExOHoiLz48cGF0aCBzdHJva2UtbWl0ZXJsaW1pdD0iMTAiIHN0cm9rZS1saW5lam9pbj0icm91bmQiIHN0cm9rZS1saW5lY2FwPSJyb3VuZCIgc3Ryb2tlLXdpZHRoPSIuNjQiIHN0cm9rZT0iIzM0MzQzNCIgZmlsbD0ibm9uZSIgZD0iTTY1NS4yNDMgODcuNzg3cy0zMC40NjItLjgtNTAuNDktMTcuMDNjLTIwLjA2Ny0xNi4yMy02MS41MjItNDAuMTc2LTkwLjkwNC0yNi45NDQtMjkuMzgzIDEzLjE5Mi0zNC42MiAzNC4xLTMyLjQyIDk1Ljk4MiAyLjE5OCA2MS44ODMtLjggNzMuNzE2LTIwLjU4OCA3OS4xOTItMjEuNzA3IDYuMDc3LTUxLjA5LTIxLjk4Ni01NS43MjctNDEuMjU1LTQuNjc3LTE5LjUwOC0xMy43NTEtNjYuODQtNTEuOTI4LTUyLjgwOC0xNC41NTEgNS41MTctMzguNDE3IDMyLjQ2LTUyLjQ0OC0xLjM1OS0xMy43MTItMzQuMSAyMy42MjUtODguODI2LTM0LjU4LTEwOS4yMTRDMjI1Ljc4NC42IDIxNS45MSA1MC45NyAxODMuNDg5IDQ1LjQ1MmMtNDAuMDk1LTYuNTk2LTQ1LjU3Mi0zNy4xMzctNjQuOC0yMy45NDUtMTkuNTA4IDEyLjk1MiA1LjIzNyA0My4yMTQtMTMuMTkyIDQ1LjY1Mi0xOC42NjkgMi4xOTktMzQuODU5LTQ1LjY1Mi02OC4wNzktMjUuNTQ0LTMyLjk0IDIwLjA2OCA3LjE1NiA0Ni40NTItMy44MzcgNjYuNTYtNC4zOTggOC4yMzQtMjAuNTg4LTEuNjgtMjYuOTA0IDEzLjc1MS02LjA3NiAxNS4zOSAxNC41NTEgMTguNjY5IDguNTE1IDM5LjU3NiAwIDAgMzIuOTQtMTAwLjY1OSAxMzAuNC04Mi43OSA3NS43OTUgMTMuNzUyIDExNC4yNTIgODEuMTUxIDE1OS4wMjQgMTA1LjA5NyA0NC43MzMgMjMuOTA1IDY1LjYgMjMuMDY2IDc4Ljc5MyAyNi45NDMgMTMuMTkyIDQuMTE4IDU0LjY0NyAxNi43NSA3Ni44NzMgOS44NzQgMjIuMjY3LTYuODc2IDIxLjcwNy0zMC41MDEgMjIuNTQ2LTM4LjIxNyAwIDAgMzYuNDk4LTMxLjA2IDU1LjE2Ny00NS45MzIgMTguNjY5LTE0LjgzIDMyLjE0LTM3LjY1NyAxMTcuMjQ5LTQ4LjY5IiBjbGlwLXBhdGg9InVybCgjYSkiLz48cGF0aCBzdHJva2UtbWl0ZXJsaW1pdD0iOCIgc3Ryb2tlLXdpZHRoPSIuNjQiIHN0cm9rZT0iIzM0MzQzNCIgZmlsbD0ibm9uZSIgZD0iTTQyNS4wNjIgMjA2Ljk1NWM1NC4zNjcgOS4wMzQgNTcuMDg2LTQ1Ljg5MyA1Ny4wODYtNDUuODkzbS0xMTcuMTI5LTM4LjQ3NnMtMTIuMzUzLTEuMS01NC42ODcgMTQuNjVNMTE3Ljg4OSAyMS43ODdzLTE1LjExMSAxMi43MTItMzEuMzQxIDM1LjMzOCIvPjxwYXRoIHN0cm9rZS1taXRlcmxpbWl0PSI4IiBzdHJva2UtbGluZWNhcD0icm91bmQiIHN0cm9rZS13aWR0aD0iLjQ4IiBzdHJva2U9IiMzNDM0MzQiIGZpbGw9Im5vbmUiIGQ9Ik0zMjUuMjAzIDEzOS44NzVzLTIzLjkwNiA0LjY3Ny0zOC40NzcgNC45NTdjLTguNTM1LjI4LTIyLjI4NiAxLjM2LTIyLjI4NiAxLjM2TTEwNy45NzUgNjYuOHMtMTMuNzEyIDMuODE3LTE5Ljc0OCAxNC4xNSIvPjxwYXRoIHN0cm9rZS1taXRlcmxpbWl0PSI4IiBzdHJva2UtbGluZWNhcD0icm91bmQiIHN0cm9rZS13aWR0aD0iLjMyIiBzdHJva2U9IiMzNDM0MzQiIGZpbGw9Im5vbmUiIGQ9Ik01NzMuNjkyIDEwOS4wMTRjMC03LjY3NS0xLjExOS0xNS4zOS0uNTYtMjMuMTA2LjU2LTUuNzU3IDIuNDgtMTEuMjczIDEuOTYtMTcuMzEtLjI4LTIuMTk4LTEuNC03Ljk5NS0xLjQtOC44MzRNNTYxLjA2IDExNS41N2MuMjQtMTAuNjc0LTYuMDM2LTIyLjcwNi03Ljk5NS0zMy40Mm0tMi44NzggNDIuMzc1Yy00LjYzOC0xMC40MzQtMTMuMTEzLTE4LjcxLTE5LjY2OS0yOC4wNjMtNi44NzUtOS42MzUtOS41OTQtMjAuMzQ4LTEzLjk5MS0zMS4xMDJtMjMuMTA2IDcwLjY3OGMtOS45MTQtOC4yNzUtMjIuMzA3LTE4Ljc1LTI3LjgyMy0zMC42MjJtMTEuNTEzIDQyLjY5NGMtNy42NzYtNC45MTctMTUuNjMtMTMuMTkyLTIxLjQyNy0xOC4xNDltNy41MTUgMjkuNDIyYy02LjAzNi0yLjE1OC0xMC45OTMtNS4xNTYtMTYuMjMtOC43MTRtOTkuODU5LTQ5Ljk3YzMuOTE4LTQuODc3IDcuNTU2LTE1LjI3IDEyLjMxMy0xNy4xOW0tMzY5LjIxNiA0MS45NTVjNy40MzUuMjYgMTMuNzcyLTEuNjM5IDIwLjY2Ny00LjA3OCAxMC43MzQtMy41MzcgMjIuNTY3LTMuODE3IDMzLjMtNi41MzZtLTY4Ljc1OCAwYzcuNDM1LTQuMTE3IDE0LjU5MS04LjUzNCAyMC45MDctMTQuMDUxIDExLjAxNC05LjY1NCAxNy44OS0xOS44NDggMzEuNjIxLTI2LjQ4NG0tNjMuODgxIDMxLjM0MWMyLjQ3OC00LjA5OCA3LjE1NS02Ljg1NiA5LjkxNC0xMS4yMzMgNC42NzctNy45NTUgNy40MzUtMTcuNTUgMTYuMjMtMjEuOTQ3bS00MC41MzYgMjMuMTA2YzQuNjc4LTcuNDM1IDcuMTM2LTE0Ljg3IDkuNjE1LTIzLjY4NiA0LjM5Ny0xNC44OSAxNS4zNy0yNy4wMjMgMjkuMDgyLTMzLjY0TTEwOC40NTQgNzYuNzE0YzEuOTQtNS4yMzcgNC43MTctMTAuNzM0IDYuNjU2LTE2LjI1IDIuNDc5LTYuODk2IDQuMTM4LTIyLjYwNyAxMC43NzQtMjYuMjA1bS0zLjk5OCA0MS4yNTVjMS42OC00LjExNyA0LjE1OC04LjUzNSA2LjkzNi0xMS44NTMgNC43MTctNi4zMzYgMTMuMDEyLTEwLjE5MyAxNi44OS0xNy4wOW0tOS42NzQgMzAuMTQzYzEuMDk5LTYuNjE2IDkuMzM0LTEwLjQ3NCAxMy40MzEtMTQuNjMybS04MS4wNyAyOC41NDNjLTQuNzE4LTkuMDU0LTIuNzY5LTIxLjY4Ny0zLjMyOC0zMS41OG0tMy4yMjggMzUuMzM4Yy0xLjM3LTMuNTQ4LTQuMzk4LTYuMjg2LTYuMzI3LTkuNTY0LTMuMDI4LTQuNjQ4LTMuODQ3LTkuNTc1LTUuNTA2LTE0LjUwMm0zLjM1OCAzMS41ODFjLTEuOTItNC45NTctNi44NTYtOC44MTQtMTAuMTU0LTEyLjk1Mk0zMS40NiAxMjguNzYyYy0yLjQ2OC0xLjg5OS01LjIyNi0xLjg5OS03Ljk3NC0yLjQzOS0zLjAyOC0uODItNS43ODctMi40NDgtOC44MTUtMi45OThtMjAuMDY4IDEuMmMtMy4yOTgtMS4xMi03LjE1Ni0zLjkxOC05LjkxNC02LjE1N20zLjUxOCAxNS41OTFjLTEuOTA5LjgyLTMuNTQ4IDEuOTE5LTUuNzM3IDIuMTg4LTMuMDA4LjI3LTUuMTk3IDAtNy45MzUgMS4wOW0yNzAuNzE2IDMzLjI2YzYuNTc2LTkuMTM1IDE4LjA1LTIxLjMwNyAyNy4zNDMtMjIuMTQ3bS03LjUxNSAzMi45NGMzLjAxOC04Ljc5NSAxOS4xODgtMTYuMjMgMjYuMzA0LTIyLjI4NiAxMS4yMzMtOS42MzUgMjcuMTI0LTE1LjEzMSAzNy4yNTctMjUuMDQ1bS00OS40OSA1Ni4yODZjMTEuODMzLTQuNjk3IDM0LjY2LTExLjg5MyA0Ni4yMTItMjIuMTQ3bS0zMC42MjEgMzAuODYyYzIwLjAwOC04LjE5NiAzNy44MTctOS4yNzUgNTkuMTY0LTkuODM1Ii8+PHBhdGggc3Ryb2tlLW1pdGVybGltaXQ9IjgiIHN0cm9rZS1saW5lY2FwPSJyb3VuZCIgc3Ryb2tlLXdpZHRoPSIuNDgiIHN0cm9rZT0iIzM0MzQzNCIgZmlsbD0ibm9uZSIgZD0iTTIwMS4wMzggNDMuMjE0cy0yMS45NjcgOS45MzQtMzEuMDIxIDE2LjgxYy0xMy4xNzIgOS45MTQtMTUuMTEgMTUuOTctMTUuMTEgMTUuOTciLz48cGF0aCBmaWxsLXJ1bGU9ImV2ZW5vZGQiIGZpbGw9IiNmZmYiIGQ9Ik0yMzEuMTggMjEuNTY3czE3LjA3LTE2LjQ5IDQ0LjU5My0xLjM4YzI3LjUyMyAxNS4zOTEgMjIuMzA2IDQxLjIxNiAyMi4zMDYgNTYuMDQ3IDAgMCAyLjc1OS00My4xMzQtMjIuNTY2LTUzLjg0OC0yNS4zMjUtMTAuNDMzLTI5Ljc0Mi03LjY3NS00NC4zMzMtLjgyeiIgY2xpcC1wYXRoPSJ1cmwoI2EpIi8+PHBhdGggZmlsbC1ydWxlPSJldmVub2RkIiBmaWxsPSIjZmZmIiBkPSJNMTQzLjU1MyAyOC4yMjNzLTEwLjM5NC0xMi4zNTMtMjAuODA3LTcuNjc1Yy0xMC42OTQgNC42NTctMTEuNzczIDE0LjgxLTEwLjEzNCAyNy4xNDMgMCAwLTIuNDc5LTIwLjg0NyA5LjU3NC0yNi4wNDQgMTIuMDczLTQuOTM3IDIxLjM2NyA2LjU3NiAyMS4zNjcgNi41NzZ6TTc4LjA3MyA1MC4ycy0xOC45MzktMjAuODk4LTM5LjUxNi03Ljk3NkMxOC4yMzkgNTUuMTU3IDI2LjIwNCA2OC4wOCAzMC4wNDIgNzguNzkyYzAgMC0xMy40NTItMjMuMzY2IDkuMDY0LTM1LjQ1OEM2MS44ODIgMzEuNTEgNzguMDczIDUwLjIgNzguMDczIDUwLjJ6bS00Ni44NTIgNjIuMzMycy02Ljg4Ni44My0xMC43NDMgMS4xMWMtMy41NzguMjY5LTkuMzY1IDEuMDk4LTEyLjQwMyA3Ljk5NC0yLjc1OCA2Ljg4Ni0uMjcgOS42NDQgMS45MjkgMTQuODgxIDAgMC00LjQwNy02Ljg4Ni0uNTUtMTQuMDUxIDMuODU4LTcuMTc2IDMuMDI4LTYuMDY3IDcuOTk1LTYuODk2IDQuNjg4LTEuMSAxMi40MDMtMS45MjkgMTMuNzcyLTMuMDM4em00MTAuMzkxIDEwNi40OTVzLTIzLjU4NS02LjU5Ni0zNS45MzgtMzQuMzM5Yy0xMi4wNzMtMjcuNDYzLTcuMzk1LTUyLjQ4OC0zNy42MTctNTkuOTI0IDAgMCAxNy4zMSA1LjUxNyAyMi41MDYgMjAuOTA4IDUuMjM3IDE1LjM5IDE1Ljk1IDY3LjMxOSA1MS4wNSA3My4zNTV6bTQxLjg5NS01MS40MDlzMS4xMi00Mi44NTQtLjUyLTU0LjY4NmMtMS4zOTktMTEuNzkzLTIuNTE4LTcyLjI3NyA1NS45MjYtNzAuMzE4IDAgMC0xOS4yNjguNTItMzcuMjE3IDEzLjcxMi0xNy42MyAxMy40NzItMTguNzA5IDQxLjc3NS0xNi4yMyA2NS40IDIuNDc4IDIzLjY2Ni0xLjk1OSA0NS44OTItMS45NTkgNDUuODkyeiIvPjxwYXRoIGZpbGwtcnVsZT0iZXZlbm9kZCIgZmlsbD0iI2FhNzNhYSIgZD0iTTg4Ljk0NiA1Ni45ODVjMS45MzkgMi4yIDUuMjc3IDQuMTE4IDcuNzU1IDUuNzc3IDIuNzc5IDEuOTE5IDYuMDk3IDMuNTU4IDkuNjk1IDIuMTk5IDMuMzE4LTEuMSA0LjY5Ny0zLjI5OCA0LjE1Ny02LjYxNi0uMjgtMy4wMTktLjI4LTcuNDE2LTEuMzgtMTAuMTc0LTMuMDU3IDMuMzE4LTQuOTk2IDYuODc2LTkuNDEzIDcuNzE1LTMuMzM4LjgyLTcuNDc2LS41Ni0xMC41MzQgMS4zNnptMzkyLjQ4MiAxMTUuMzUxcy05LjAzNCA0My4wOTMtNTIuNzY4IDM1LjQxOGw1LjUxNyA0LjM5N3M0My40MTQgNS4xOTcgNDcuMjUxLTM5LjgxNXoiLz48cGF0aCBmaWxsLXJ1bGU9ImV2ZW5vZGQiIGZpbGw9IiNkN2IyZDEiIGQ9Ik01NjIuOTM5IDU0LjY0N2M1LjQ3NyAyLjc1OCA1LjE5NyA4LjIzNSA1LjE5NyAxMy43NTIuMjggNi41OTYgMS42MzkgMTAuNzUzLTUuMTk3IDEwLjE5My02LjMxNi0uODQtNy4xMTYtMS4xMTktMTIuMzEzIDIuNDc5LTQuMzk3IDMuMDM4LTcuNjc1IDMuMzE4LTEyLjA3MiAwLTcuMzk2LTUuNzk3LTEzLjE1Mi0yMi41ODYtMjUuMjI1LTE5LjU0OC04LjQ3NSAyLjE5OC01Ljc1NyAxMy43NTEtMi43MTggMTguOTg4IDEuNjM5IDMuMzE4IDguNzU0IDExLjI3MyA3LjkxNSAxNC44NzEtLjI0LjU2IDAgMS4wOC0uMjQgMS45MTktNS41MTcuMjgtOS4wNzUtLjU2LTkuNTk0IDUuNzk3LS41NiA0LjY3NyA0LjA3NyAxMi4xMTIuOCAxNS45NS0yLjk5OSAzLjMxOC03LjY3Ni0uMjgtMTEuMjM0IDIuMTk5LTQuOTE3IDMuNTk3IDEuMDggMTAuNzUzLTIuNzU4IDE0LjU5LTcuNjc2IDguNTE2LTkuNTk0LTE5LjI2OC05LjAzNS0yMy4xMDUgMS4xMi05LjkxNCAxLjEyLTIwLjk0OCA0LjY3Ny0zMC41ODIgNS43NTctMTQuNTUxIDE2LjQzLTI5LjE0MiAzMi42Mi0zMS45IDEyLjU5My0yLjIgMjYuNTg0LTQuMTU4IDM3LjUzOCAzLjU1N3pNMzc0LjU5MyAxMzMuMjRjMy4yOTggOC4yNTQtMTUuMzcgMTcuMDQ5LTIxLjY4NyAyMC45MDctNC42NTcgMi43NTgtMjAuNTg3IDEwLjk5My0xOS43NDggMTcuMzMgMS4xIDkuMDc0IDMwLjE4Mi0xMC43MzQgMzcuNTk3LTcuOTc2IDE1LjM3MSA1LjQ5Ny0xMC40MzMgMTUuNjctMTEuNzkzIDE5LjI0OCA3LjEzNiA0LjExOCAxNS45MS0xLjkxOSAyMy4zMjYtMS45MTkgNy45NTUgMCAxMC40MzQgNS40OTcgMTcuMjkgNi44NTYuNTQtOC43OTQtNS4yMTctMjAuODg3LTguNzc1LTI5LjE0Mi0zLjAzOC03LjQxNi03Ljk3NS0xOC42ODktMTMuNzMyLTI0LjIwNXpNMjI5Ljk4IDI4LjQ2M2M2Ljg1NiAyLjc1OCAxNy4wMSA3LjcxNSA5LjMzNSAxNi43OS00LjExOCA0Ljk1Ny0xMC43MTQgNy40MTUtMTUuMzkgMTIuMzcyLTMuMjc5IDMuNTc4LTExLjUzNCAxNS42OS0uNTQgMTMuNDkyIDQuOTM3LTEuMSAxNS42NS0xMi45MzIgMjAuNTg3LTUuMjM3IDMuMjk4IDQuOTU3LTQuMTE3IDEwLjczNC0zLjgzOCAxNS40MS44MiAxMi4xMTMgMTUuMzcxLS44MTkgMTguOTQ5LTQuMzk3IDQuMTE3LTQuMTM3IDE0LjI3MS0xNC41OSAxOS43NjgtNy4xNTUgNC4zOTcgNi4wNTYtMi40NzggMTQuODUtNi41OTYgMTguOTg4LTQuMTE4IDQuMTE4LTEyLjA3MyA3LjEzNi04LjIzNSAxMy43NTIgMy4yOTggNS43NzYgOS4zMzQgNy40MTUgMTUuMTEgNS40OTcgMTEuMjU0LTMuNTc4IDE1LjY1MS0xOC45ODkgMTcuMDMtMjkuNDQzIDIuMTgtMTcuODY5LTQuMzk3LTQwLjcxNS0xOC45NDgtNTEuNDQ4LTEzLjQ3Mi05Ljg5NC0zNC41OTktMTAuNzM0LTQ3LjIzMS4yOHptLTExMS4xMTIgNi4zNTZjNS4yMTctNC4zOTcgMTcuMzMtNy40MzYgMTQuODUxIDMuNTc4LS41NiAzLjMxOC05LjM1NCAxMS4yOTMtMS4zOCAxMi4xMTIgNS43NzcuODQgMTMuNDczLTEzLjc1MSAxOS41MjktNy4xNTUgMy41NzggNC4xMzctMi43MzggOC4yNzUtMy41NzggMTIuNjcyIDIuNzU4IDMuMDE4IDQuOTU3LjI4IDcuOTc1LjI4IDIuNDc5LS4yOCA0LjEzOCAxLjM3OSA2LjMzNiAxLjM3OSA2LjA1NyAwIDExLjI3NC01Ljc5NiAxNi43Ny03LjQzNS0xLjM1OS0zLjAzOS0xMy4xOTItNi44OTYtMTYuNzctOC44MTUtMi40NzgtMS4zOC01Ljc3Ni0zLjAzOC04LjUzNC00LjEzOC00LjExOC0xLjYzOS01Ljc3Ny0yLjQ3OC05Ljg5NC00Ljk1Ny04LjI1NS01LjQ5Ni0yNC40ODYtMTcuMzUtMjcuMjQ0IDB6TTgxLjcyIDU3Ljg1NWMyLjc0OSAzLjI4OC0zLjg0NyA0LjEwNy02LjA0NiA0LjM4Ny01LjQ5Ny44Mi0zLjAyOC0yLjE4OC02LjU5Ni00LjY1Ny0yLjc0OC0yLjE5OS04LjI1NS0xLjY0OS0xMC40NTQgMS42NC0xLjM2OSAyLjE5OC44MyA4LjIyNC0yLjc0OCA4LjQ5NC0zLjI5OC41NS02LjA0Ni00LjY1Ny05LjYyNC0uNTUtMi4xOTkgMi40NjktLjI3IDcuMTI2LTEuOTE5IDkuODc0LTEuMzc5IDIuNDU5LTUuNTA3IDUuNzQ3LTguNTI1IDUuMjA3LTMuODQ3LS41NS00LjY3Ny01LjIwNy01LjIyNy04LjQ5NS0yLjQ3OC0xMi42MTIgMS45My0yNS4yMTQgMTQuODUxLTMwLjE1MSA2LjMyNy0yLjQ2OSAxNC44NDEtMS4zNyAyMS4xNjguMjggMy44NDcgMS4wODkgNy40MjUgMi43MzggOS4zNTQgNi4yOTYgMS4xIDIuMTk4IDEuOTE5IDQuMzg3IDMuODQ4IDUuMjA2eiIvPjxwYXRoIGZpbGwtcnVsZT0iZXZlbm9kZCIgZmlsbD0iI2ZmZiIgZD0iTTM0MS40MzMgMjM0LjA1OHMtNTcuNDA1LTEwLjQzNC0xMTguMTI4LTc5LjM5MkMxODEuODEgMTA3LjY5NSAxMTcuMjQ5IDgzLjUxIDYwLjY0MyAxMjYuOTIzYzAgMCA0NS4zMzMtNDguMzcgMTEyLjY1Mi0xMi42NTIgNzUuODM0IDQwLjM5NSA0OC4zNSA3Mi41MzYgMTY4LjEzOCAxMTkuNzg3ek0yMS4zNjcgMTU0LjQyNnMtMi4yMTkgMTYuMDcgMTkuOTI4IDIuNDk5YzAgMC0xOC4yNjkgOS42OTQtMTkuOTI4LTIuNDk5eiIvPjxwYXRoIGZpbGwtcnVsZT0iZXZlbm9kZCIgZmlsbD0iI2Q4YjQ2NCIgZD0iTTQxNS40NjggMTk0Ljg0MnM2LjA3NyA3LjQzNSAxMC43MTQgMTAuMTU0YzAgMCA0NC4yNTMgMTIuMzUyIDUzLjU2Ny0zNy42MTcgMCAwLTM1LjEzOCAzNC42MTktNjQuMjggMjcuNDYzeiIvPjxwYXRoIGZpbGwtcnVsZT0iZXZlbm9kZCIgZmlsbD0iI2Q4YjA1NyIgZD0iTTUyMC4wNDUgMjA0LjE1NnMtNTcuNjQ1IDgzLjg3LTE3Mi42OTYgNjIuNzIyYzAgMCA5NS4zMDMgMTguNzA5IDE3Mi42OTYtNjIuNzIyek0xNjQuNSAxNTYuODI1cy0yOS4wNjItMzEuNTItOTQuOTAyLTEwLjQxNGMwIDAgNjEuNzIyLTI0LjY4NSA5NC45MDIgMTAuNDE0em01ODIuMzY3IDE4LjYyOXMtMTUuOTkgMjkuNjIyIDE3LjAzIDQ2LjYxMWMwIDAtMjYuMTA0LTEyLjU5Mi0xNy4wMy00Ni42MTF6bTMuNTk4LTQ0Ljc3NHMtMTIuNTkyLTMwLjYyLTg3Ljg2Ny0zNS44MTdjMCAwIDczLjg3NiAyLjE5OCA4Ny44NjcgMzUuODE4eiIvPjxwYXRoIGZpbGwtcnVsZT0iZXZlbm9kZCIgZmlsbD0iI2ZmZiIgZD0iTTUzMy4yMzcgMTU3LjU0NXMtMzEuODYgODEuMzktMTQyLjU1NCA4My4wM2MwIDAgOTkuNDYgMTAuOTkzIDE0Mi41NTQtODMuMDN6bTIwMy43OTYtNDUuNzMzczMzLjQyIDIxLjcwNyAyMC4wMjggNTMuMjQ4YzAgMCAxMS43NTMtMjUuNzg0LTIwLjAyOC01My4yNDh6Ii8+PHBhdGggZmlsbC1ydWxlPSJldmVub2RkIiBmaWxsPSIjZmZmIiBkPSJNNzkwLjA0MSAyMzMuNjU4czI5LjkwMiAxNy41OSAyMS43MDcgNjIuODQyYzAgMCA2LjI3Ni0zNy41NzctMjEuNzA3LTYyLjg0MnoiIGNsaXAtcGF0aD0idXJsKCNhKSIvPjxwYXRoIGZpbGwtcnVsZT0iZXZlbm9kZCIgZmlsbD0iI2ZmZiIgZD0iTTQ3OC4zMSAxOTcuMzZzLTEuMDggMjQuMjI2LTMwLjM4MSAyMC4zODhjMCAwIDI0LjY2NSAzLjAzOCAzMC4zODEtMjAuMzg4eiIvPjwvc3ZnPg==;" vertex="1" parent="RZr8qnZTbfW7pYuDrzdx-1">
          <mxGeometry x="421.26" y="70" width="84.94" height="41" as="geometry" />
        </mxCell>
        <mxCell id="0MoapVt36Oy3kZCA_6sw-11" style="edgeStyle=orthogonalEdgeStyle;rounded=0;orthogonalLoop=1;jettySize=auto;html=1;endArrow=blockThin;endFill=1;" edge="1" parent="RZr8qnZTbfW7pYuDrzdx-1" target="RZr8qnZTbfW7pYuDrzdx-39">
          <mxGeometry relative="1" as="geometry">
            <mxPoint x="464" y="140" as="sourcePoint" />
            <Array as="points">
              <mxPoint x="464" y="150" />
              <mxPoint x="515" y="150" />
            </Array>
          </mxGeometry>
        </mxCell>
        <mxCell id="RZr8qnZTbfW7pYuDrzdx-32" value="&lt;div style=&quot;font-size: 10px;&quot;&gt;&lt;b&gt;&lt;font style=&quot;font-size: 10px;&quot;&gt;&lt;i&gt;Trypanosoma rangeli&lt;br&gt;&lt;/i&gt;&lt;/font&gt;&lt;/b&gt;&lt;/div&gt;" style="text;html=1;strokeColor=none;fillColor=none;align=center;verticalAlign=middle;whiteSpace=wrap;rounded=0;" vertex="1" parent="RZr8qnZTbfW7pYuDrzdx-1">
          <mxGeometry x="410" y="112.84" width="107.47" height="19.5" as="geometry" />
        </mxCell>
        <mxCell id="RZr8qnZTbfW7pYuDrzdx-33" value="" style="group" vertex="1" connectable="0" parent="RZr8qnZTbfW7pYuDrzdx-1">
          <mxGeometry x="260" y="50.25" width="135" height="90" as="geometry" />
        </mxCell>
        <mxCell id="RZr8qnZTbfW7pYuDrzdx-34" value="" style="rounded=0;whiteSpace=wrap;html=1;arcSize=5;fontStyle=1;fillColor=#F8CECC;strokeColor=none;" vertex="1" parent="RZr8qnZTbfW7pYuDrzdx-33">
          <mxGeometry width="110" height="60" as="geometry" />
        </mxCell>
        <mxCell id="RZr8qnZTbfW7pYuDrzdx-35" value="&lt;div&gt;&lt;font style=&quot;font-size: 9px;&quot; color=&quot;#ffffff&quot;&gt;&lt;i&gt;Trypanosoma cruzi&lt;/i&gt;&lt;br&gt;&lt;/font&gt;&lt;/div&gt;&lt;div&gt;&lt;font style=&quot;font-size: 9px;&quot; color=&quot;#ffffff&quot;&gt;&lt;i&gt;Trypanosoma brucei&lt;/i&gt;&lt;/font&gt;&lt;/div&gt;" style="rounded=0;whiteSpace=wrap;html=1;arcSize=5;fontStyle=1;fillColor=#B85450;strokeColor=none;" vertex="1" parent="RZr8qnZTbfW7pYuDrzdx-33">
          <mxGeometry y="60" width="110" height="30" as="geometry" />
        </mxCell>
        <mxCell id="RZr8qnZTbfW7pYuDrzdx-36" value="" style="shape=image;verticalLabelPosition=bottom;labelBackgroundColor=default;verticalAlign=top;aspect=fixed;imageAspect=0;image=data:image/svg+xml,PHN2ZyB2aWV3Qm94PSIwIDAgODE0LjAzNSAzOTIuODQ0IiB2ZXJzaW9uPSIxLjAiIHhtbG5zPSJodHRwOi8vd3d3LnczLm9yZy8yMDAwL3N2ZyI+PGRlZnM+PGNsaXBQYXRoIGlkPSJhIiBjbGlwUGF0aFVuaXRzPSJ1c2VyU3BhY2VPblVzZSI+PHBhdGggZD0iTTQuNDc3IDEwLjk1M2g4MTMuMTA3djM5My4xMjJINC40Nzd6Ii8+PC9jbGlwUGF0aD48L2RlZnM+PHBhdGggZmlsbC1ydWxlPSJldmVub2RkIiBmaWxsPSIjZjlkODdiIiBkPSJNODEyLjAyOCAzMjEuMDA1YzEwLjQzNC01NS44MDYgNC4xMTctNzYuMzkzLTMyLjctOTkuNS0zNi43NzgtMjMuMTA1LTMyLjY2LTMwLjI2LTIwLjAyOC01NS44MDUgMTIuOTEyLTI1Ljg2NS4yOC03NC41MTUtMTE1LjA5LTc4LjkxMy0xMDkuMDE0LTIxLjE0Ny0xNDAuNTk1IDc1LjMxNS0yMTcuMTkgMTAzLjA5OC04MC43NSAyOS40MjItMTM4LjM5Ni00MS40OTUtMTc2Ljg1My03NS44NzQtMzguNzM2LTM0LjM4LTExNS4wNS03Mi44NzYtMTc0LjM3NC00NC4yNTNDMTYuNDcgOTguMDYgNS40NzcgMTU2LjM0NSAxNS42NzEgMTY1Ljk3OWMxMC40MzMgOS4zMTUgMTkuNzQ4LTYuODc1IDQ1LjU3Mi0xNS4zOUMxNzEuNjE2IDExMy43MyAxNjIuNTggMTg2LjU2NyAyNzguNDcgMjQ1LjEzYzExNi4xMyA1OC4yODUgMjE3Ljc0OCAxNi4yMyAyNjQuNzItNzMuMTE1IDIyLjc4Ni00My45NzQgNTQuNjQ3LTY0LjA0MSA3OS4zNTItNzMuMTE2IDExLjc5My0xLjkxOSA1OC43NjQtOC4yNzUgOTguODYgMTAuNzE0IDI0LjcwNSAxMS41NTMgNDIuNTM0IDMwLjIyMSAyNi45MDMgNTkuMDg0LTE1LjM5IDI4LjYyMi0yLjc1OCA0NC4yOTMgMTQuNTUyIDUzLjg4NyAxNy4wMyA5LjkxNCA1Ni4wMDYgMjguODYzIDQzLjM3MyA3OC42MzItMTIuNjMyIDUwLjA1LTIuMTk4IDEwMi4yNTggNS4yMzcgMTAxLjczOSAxMy40MzItLjg0LTkuNjM0LTI2LjM4NC41Ni04MS45NXoiIGNsaXAtcGF0aD0idXJsKCNhKSIvPjxwYXRoIGZpbGwtcnVsZT0iZXZlbm9kZCIgZmlsbD0iI2VkYzk2ZSIgZD0iTTYxMS42MyA4My4yN2MtMjIuNzg3IDEwLjc1My00OC44NTEgMzAuODItNjguMzYgNjguNDc4LTQ2Ljk3IDg5LjM4Ni0xNDguNTUgMTMxLjcyLTI2NC42NzkgNzMuMTU2LTExNS44OS01OC41NjUtMTA2LjgxNS0xMzEuNDQtMjE3LjE4OC05NC41ODMtMjUuODI1IDguNTE1LTM1LjE3OSAyNS4wMjUtNDUuNjEzIDE1LjM5LS44LS44MzktMS4zNTktMS45MTgtMS45MTgtMy4zMTctMi40NzkgMTEuMjczLTEuMzYgMjAuMTA4IDEuOTE4IDIzLjEwNiAxMC40MzQgOS42MzQgMTkuNzg4LTYuODc2IDQ1LjYxMy0xNS4zOTEgMTEwLjM3My0zNi44NTggMTAxLjI5OCAzNi4wMTggMjE3LjE4OCA5NC41ODMgMTE2LjEzIDU4LjU2NCAyMTcuNzA4IDE2LjIzIDI2NC42OC03My4xMTYgMjIuNzg2LTQzLjczMyA1NC42NDctNjMuODAxIDc5LjM1Mi03My4xNTZtMTkwLjU2NCAyODQuMzA4Yy0uNTYgMC0xLjEyIDAtMS42MzkuMjgtNC4zOTcuMjgtOS42MzQtMTcuNTktMTAuNzEzLTQyLjMzNC0xLjY0IDM0LjY1OSA1LjE5NyA2Mi40MDIgMTAuNzEzIDYyLjE2MiA2LjU1Ni0uNTYgNC4zOTctNy4xNTYgMS42NC0yMC4xMDh6IiBjbGlwLXBhdGg9InVybCgjYSkiLz48cGF0aCBzdHJva2UtbWl0ZXJsaW1pdD0iOCIgc3Ryb2tlLXdpZHRoPSIuNjQiIHN0cm9rZT0iIzM0MzQzNCIgZmlsbD0ibm9uZSIgZD0iTTgxMi4wMjggMzIxLjAwNWMxMC40MzQtNTUuODA2IDQuMTE3LTc2LjM5My0zMi43LTk5LjUtMzYuNzc4LTIzLjEwNS0zMi42Ni0zMC4yNi0yMC4wMjgtNTUuODA1IDEyLjkxMi0yNS44NjUuMjgtNzQuNTE1LTExNS4wOS03OC45MTMtMTA5LjAxNC0yMS4xNDctMTQwLjU5NSA3NS41OTUtMjE3LjE5IDEwMy4wOTgtODAuNzUgMjkuNDIyLTEzOC4zOTYtNDEuNDk1LTE3Ni44NTMtNzUuODc0LTM4LjczNi0zNC4zOC0xMTUuMDUtNzIuODc2LTE3NC4zNzQtNDQuMjUzQzE2LjQ3IDk4LjA2IDUuNDc3IDE1Ni4zNDUgMTUuNjcxIDE2NS45NzljMTAuNDMzIDkuMzE1IDE5Ljc0OC02Ljg3NSA0NS41NzItMTUuMzlDMTcxLjYxNiAxMTMuNzMgMTYyLjU4IDE4Ni41NjcgMjc4LjQ3IDI0NS4xM2MxMTYuMTMgNTguMjg1IDIxNy43NDggMTYuMjMgMjY0LjcyLTczLjExNSAyMi43ODYtNDMuOTc0IDU0LjY0Ny02NC4wNDEgNzkuMzUyLTczLjExNiAxMS43OTMtMS45MTkgNTguNzY0LTguMjc1IDk4Ljg2IDEwLjcxNCAyNC43MDUgMTEuNTUzIDQyLjUzNCAzMC4yMjEgMjYuOTAzIDU5LjA4NC0xNS4zOSAyOC42MjItMi43NTggNDQuMjkzIDE0LjU1MiA1My44ODcgMTcuMDMgOS45MTQgNTYuMDA2IDI4Ljg2MyA0My4zNzMgNzguNjMyLTEyLjYzMiA1MC4wNS0yLjE5OCAxMDIuMjU4IDUuMjM3IDEwMS43MzkgMTMuNDMyLS44NC05LjYzNC0yNi4zODQuNTYtODEuOTUiIGNsaXAtcGF0aD0idXJsKCNhKSIvPjxwYXRoIGZpbGwtcnVsZT0iZXZlbm9kZCIgZmlsbD0iI2NlYTk1ZiIgZD0iTTQ1OS4xMjIgMjIzLjM0NWMxMS43OTMtMy44MzggMTEuNTEzLTcuNzE2IDE0LjgzLTExLjgzMy0zLjMxNyA0LjExNy04LjIzNCA3LjQzNS0xNC4yNyA5LjA3NC0xNS45NSA0LjM5OC0zNS45NzktNy45NTUtNDcuNTMyLTIzLjM0Ni03My41OTUgMTcuMzEtMTI2Ljg4My00Ny41Ny0xNjMuNDItNzkuOTkxLTMxLjAyMi0yNy41MDMtODUuOTQ5LTU3LjQ4NS0xMzcuMDM4LTUzLjg4Ny0uMjggMy44MzctMi4xOTggNi41OTYtNy4xMTUgNy4xNTUtNC4xMTguNTItNy45OTYtMS4xMi0xMS44MzMtNC4xMTctNi4zMTYgMS42MzktMTIuMzUzIDMuNTU4LTE4LjM5IDYuNTk2LTE3LjAyOSA3Ljk1NS0yOS45NCAxOC42NjgtMzkuODE1IDI5Ljk0Mi4yOCAzLjAzOC0uMjggNS43NTYtMS45MTkgOC41MTQtMS4zOTkgMy4wMzktNC4xMTcgMy41OTgtNy40MzUgNC4xMTgtNy4xMTYgMTAuOTkzLTguNTE1IDQwLjk3NS0xMC45OTQgNDkuMjEgMCAwIDMyLjk4LTEwMC4zNCAxMzAuNDgxLTgyLjQ3IDc1Ljc5NCAxMy43NTIgMTE0LjI1MSA4MS4xMTEgMTU4Ljk4NCAxMDUuMDE2IDQ0Ljc3MyAyMy45MDYgNjUuNjQgMjMuMTA2IDc4LjgzMiAyNi45NDQgMTMuMTkyIDMuODM4IDU0LjY0NyAxNi43NSA3Ni42MzQgOS4wNzV6bTE1LjM5LTEyLjM5M2M2LjU1Ni05LjU5NCA2LjgzNi0yMC4wMjggNy4zOTYtMjQuOTg1IDAgMCAzNi41MzgtMzEuMDYgNTUuMjA2LTQ1LjkzMiAxOC4zOS0xNC41NTEgMzQuNjItNDAuNjU1IDExNy4yNS01MS42NDktMS42NC0uMjgtNi4wMzcgMC03LjM5Ni0uMjgtMy4yNzgtLjU2LTcuNDM2IDEuNjQtMTEuNzkzLjUyLTc0LjE1NS0xMC45OTMtMTExLjI1MyAzNC4xLTE1NC4xMDcgNzAuMTE4LjU2IDMwLjIyMS0xLjA3OSA0My42OTMtNi41NTYgNTIuMjA4eiIvPjxwYXRoIGZpbGwtcnVsZT0iZXZlbm9kZCIgZmlsbD0iI2VhYWE3NiIgZD0iTTI3Mi4xMTUgMjA5LjE5M2MtMTAuNjkzIDkuMzU1LTM1LjkxOC0yLjE5OC01Ni40NjYtMjUuOTA0LTIwLjU2Ny0yMy42ODYtMjguNTIyLTUwLjQxLTE3LjgyOS01OS43ODQgMTAuNjk0LTkuMzc0IDM2LjE5OCAyLjE5OSA1Ni43NDYgMjUuOTA0IDIwLjU2NyAyMy42ODYgMjguNTAyIDUwLjQxIDE3LjU1IDU5Ljc4NHoiLz48cGF0aCBmaWxsLXJ1bGU9ImV2ZW5vZGQiIGZpbGw9IiNlMjlmNjEiIGQ9Ik01Ny40NTUgMTM3LjgyNmMtMy44NjctMS4wODktNS41MjYtNy4xMDUtMy41ODgtMTMuMTIyIDEuOTMtNi4wMTYgNi4zNDctOS44NTQgMTAuMjE0LTguNzU0IDMuODY4IDEuMDkgNS41MTcgNi44MzYgMy41ODggMTMuMTIyLTEuOTI5IDYuMDE2LTYuNjI2IDkuODQ0LTEwLjIxNCA4Ljc1NHoiLz48cGF0aCBzdHJva2UtbWl0ZXJsaW1pdD0iOCIgc3Ryb2tlLXdpZHRoPSIuNDgiIHN0cm9rZT0iIzM0MzQzNCIgZmlsbD0ibm9uZSIgZD0iTTI3Mi4xMTUgMjA5LjE5M2MtMTAuNjkzIDkuMzU1LTM1LjkxOC0yLjE5OC01Ni40NjYtMjUuOTA0LTIwLjU2Ny0yMy42ODYtMjguNTIyLTUwLjQxLTE3LjgyOS01OS43ODQgMTAuNjk0LTkuMzc0IDM2LjE5OCAyLjE5OSA1Ni43NDYgMjUuOTA0IDIwLjU2NyAyMy42ODYgMjguNTAyIDUwLjQxIDE3LjU1IDU5Ljc4NE01Ny40NTUgMTM3LjgyNmMtMy44NjctMS4wODktNS41MjYtNy4xMDUtMy41ODgtMTMuMTIyIDEuOTMtNi4wMTYgNi4zNDctOS44NTQgMTAuMjE0LTguNzU0IDMuODY4IDEuMDkgNS41MTcgNi44MzYgMy41ODggMTMuMTIyLTEuOTI5IDYuMDE2LTYuNjI2IDkuODQ0LTEwLjIxNCA4Ljc1NCIvPjxwYXRoIGZpbGwtcnVsZT0iZXZlbm9kZCIgZmlsbD0iI2Q2OTM1YyIgZD0iTTI1Mi4zNjcgMTk2LjQyMWMtMy44MTggMy4wMTgtMTEuMTczLS41NC0xNi4wNy03LjY5NS00Ljg5Ny02Ljg3Ni01Ljk5Ny0xNS4xMTEtMS45LTE3Ljg3IDMuODE5LTIuNzU4IDExLjE1NC41NiAxNi4wNzEgNy42OTYgNS4xNzcgNy4xNTUgNS45NzcgMTUuMTMgMS45IDE3Ljg2OXoiLz48cGF0aCBmaWxsLXJ1bGU9ImV2ZW5vZGQiIGZpbGw9IiNkMGEwYzYiIGQ9Ik02NTUuNDgzIDg4LjA2N3MtMzAuMTgyLS44LTUwLjI1LTE3LjAzYy0yMC4zMDctMTYuMjMtNjEuNDgzLTQwLjE3Ni05MC44NjUtMjYuOTQ0LTI5LjM4MiAxMy4xOTItMzQuODk5IDM0LjEtMzIuNDIgOTUuOTgyIDIuMTk5IDYxLjYwMy0uOCA3My40MzYtMjAuNTg4IDc4LjkxMi0yMS43MDYgNi4wNzctNTEuMzY4LTIxLjcwNy01NS43MjYtNDEuMjU1LTQuNjc3LTE5LjIyOC0xMy43NTItNjYuNTYtNTEuOTI4LTUyLjUyOC0xNC41NTIgNS41MTctMzguNDE3IDMyLjQ2LTUyLjQ0OS0xLjYzOS0xMy45OTEtMzMuODIgMjMuNjI2LTg4LjU4Ni0zNC44NTgtMTA4LjkzNEMyMjYuMzAzLjYgMjE2LjQyOSA1MC45NyAxODQuMDA5IDQ1LjczMmMtNDAuMDk2LTYuODc2LTQ1LjU3My0zNy4xMzctNjUuMDgxLTI0LjIyNS0xOS4yMjggMTMuMjMyIDUuNTE3IDQzLjQ1NC0xMi45MTIgNDUuNjUyLTE4LjY2OSAyLjQ3OS0zNC44Ni00NS42NTItNjguMDc5LTI1LjU0NC0zMy4yMiAyMC4zNDcgNy4xMTYgNDYuNDUyLTMuODM4IDY2LjU2LTQuNjc3IDguNTE0LTIwLjg2Ny0xLjQtMjYuOTQzIDEzLjk5MS02LjMxNyAxNS40MyAxNC41OSAxOC40MjkgOC41MTUgMzkuMzM2IDAgMCAzMi45OC0xMDAuNjU5IDEzMC40NC04Mi43OSA3NS41MTUgMTQuMDMyIDExNC4yNTEgODEuNDMgMTU4Ljk4NCAxMDUuMzM2IDQ0Ljc3MyAyMy45NDYgNjUuNjQgMjMuMTA2IDc4LjgzMiAyNi45ODQgMTMuMTkyIDMuODM4IDU0LjY0NyAxNi40NyA3Ni44NzQgOS41OTQgMjEuOTg2LTYuODc2IDIxLjcwNy0zMC41MDEgMjIuNTQ2LTM4LjIxNyAwIDAgMzYuNDk4LTMwLjc4IDU1LjE2Ny00NS42NTIgMTguNjY4LTE0LjgzIDMyLjE0LTM3LjkzNyAxMTYuOTY5LTQ4LjY5eiIgY2xpcC1wYXRoPSJ1cmwoI2EpIi8+PHBhdGggZmlsbC1ydWxlPSJldmVub2RkIiBmaWxsPSIjZGRhNzhmIiBkPSJNNDYwLjggMjIwLjYyNmM2LjU5Ny0xLjk1OSAxMC45OTQtNS41MTYgMTQuMjcyLTkuNjM0LTMuMjc4IDQuMTE4LTcuNjc1IDYuMzE2LTEzLjcxMiA3Ljk1NS0xNS45NSA0LjY3Ny0zNi4yNTgtOS41OTQtNDcuNzctMjUuMDI1LTczLjU5NiAxNy4zNS0xMjcuMTI0LTQ3LjU3LTE2My4zODItODAuMDMxLTMxLjAyLTI3LjUwMy04NS45MDgtNTcuNDg1LTEzNi45OTctNTMuODg3LS4yNCAzLjgzNy0yLjE1OCA2LjU5Ni03LjExNSA3LjE1NS00LjExOC41Ni03Ljk1NS0xLjM5OS0xMS43OTMtNC4xMTdDODcuOTg3IDY0LjQgODEuOTUgNjYuNiA3NS44NzQgNjkuNjM4Yy0xNi45OSA3Ljk1NS0yOS45MDIgMTguNzA4LTM5Ljc3NiAyOS45ODIuMjQgMi45OTgtLjI4IDUuNzU2LTEuOTE5IDguNTE0LTEuMzk5IDIuNzU5LTQuMTE3IDMuNTU4LTcuNDM1IDQuMTE4LTcuMTE2IDEwLjcxMy0xMS4yMzMgMjEuNzQ3LTEzLjE5MiAzMC44MjEgMi43NTggNC42NzcgNC42NzcgMTAuMTU0IDIuMTk4IDE4LjM5IDAgMCAzMi45OC0xMDAuNjIgMTMwLjQ0MS04Mi43NSA3NS40NzUgMTQuMDMgMTE0LjIxMSA4MS4zOSAxNTguOTQ0IDEwNS4zMzUgNDQuNzMzIDIzLjkwNiA2NS42IDIzLjA2NiA3OC43OTIgMjYuOTQ0IDEzLjE5MiAzLjgzOCA1NC42NDcgMTYuNzUgNzYuODc0IDkuNjM0em0xNS4zOTEtMTEuMDMzYy0uMjguMjgtLjU2LjU2LS44NCAxLjEyLjI4LS41Ni41Ni0uODQuODQtMS4xMnptMCAwYzYuNTU2LTkuNTk0IDYuNTU2LTIxLjk4NyA3LjExNi0yNi45NDQgMCAwIDM2LjUzOC0zMS4wNiA1NS4yMDctNDUuOTMyIDE4LjM4OC0xNC41NTEgMzEuODItMzcuMzc3IDExNC4xNy00OC4xMy0xLjM1OS0uNTItMi45OTgtLjgtNC4zNTctMS4wOC0zLjMxOC0uNTYtNy40MzUtMS4xMi0xMS44MzMtMi4xOTktNzQuMTE1LTEwLjk5My0xMTEuMTcyIDM0LjEtMTU0LjAyNiA3MC4xMTguNTYgMzAuMjYxLS44IDQ1LjY1Mi02LjI3NyA1NC4xNjd6Ii8+PHBhdGggZmlsbC1ydWxlPSJldmVub2RkIiBmaWxsPSIjYmM4OWI3IiBkPSJNNDgxLjcwOCAxNTYuMzQ1czQuNjc3IDUxLjQ1LTEyLjYzMiA2MC4yODRjLTIzLjk0NiAxMi4wNzItNDMuNzc0LTEwLjE5NC00My43NzQtMTAuMTk0czU0LjIwNyAxMi42NzIgNTYuNDA2LTUwLjA5em0tMTEzLjE3MS0zMy4yMnMtMTMuMTcyIDAtMjAuMDI4IDQuMzc4Yy02Ljg3NiA0LjM3Ny0yNi4wODQgMTkuNDA4LTM4LjE3NyA5Ljg1NCAwIDAgNDEuNzM1LTE3Ljc5IDU4LjIwNS0xNC4yMzJ6TTEyMy44MDUgMTkuMjI4cy0xMi44OTIgNC4xMzgtMTIuNjEyIDE4Ljk2OWMuMjggMTQuNTcxIDYuMDM2IDI1LjU2NC0zLjI5OCAyOC41ODMtOS4wNTUgMy4yOTgtMjAuODY4LTEwLjQzNC0yMC44NjgtMTAuNDM0czI3LjcyMy0zNi41NTggMzYuNzc4LTM3LjExOHoiLz48cGF0aCBzdHJva2UtbWl0ZXJsaW1pdD0iMTAiIHN0cm9rZS1saW5lam9pbj0icm91bmQiIHN0cm9rZS1saW5lY2FwPSJyb3VuZCIgc3Ryb2tlLXdpZHRoPSIuNjQiIHN0cm9rZT0iIzM0MzQzNCIgZmlsbD0ibm9uZSIgZD0iTTY1NS4yNDMgODcuNzg3cy0zMC40NjItLjgtNTAuNDktMTcuMDNjLTIwLjA2Ny0xNi4yMy02MS41MjItNDAuMTc2LTkwLjkwNC0yNi45NDQtMjkuMzgzIDEzLjE5Mi0zNC42MiAzNC4xLTMyLjQyIDk1Ljk4MiAyLjE5OCA2MS44ODMtLjggNzMuNzE2LTIwLjU4OCA3OS4xOTItMjEuNzA3IDYuMDc3LTUxLjA5LTIxLjk4Ni01NS43MjctNDEuMjU1LTQuNjc3LTE5LjUwOC0xMy43NTEtNjYuODQtNTEuOTI4LTUyLjgwOC0xNC41NTEgNS41MTctMzguNDE3IDMyLjQ2LTUyLjQ0OC0xLjM1OS0xMy43MTItMzQuMSAyMy42MjUtODguODI2LTM0LjU4LTEwOS4yMTRDMjI1Ljc4NC42IDIxNS45MSA1MC45NyAxODMuNDg5IDQ1LjQ1MmMtNDAuMDk1LTYuNTk2LTQ1LjU3Mi0zNy4xMzctNjQuOC0yMy45NDUtMTkuNTA4IDEyLjk1MiA1LjIzNyA0My4yMTQtMTMuMTkyIDQ1LjY1Mi0xOC42NjkgMi4xOTktMzQuODU5LTQ1LjY1Mi02OC4wNzktMjUuNTQ0LTMyLjk0IDIwLjA2OCA3LjE1NiA0Ni40NTItMy44MzcgNjYuNTYtNC4zOTggOC4yMzQtMjAuNTg4LTEuNjgtMjYuOTA0IDEzLjc1MS02LjA3NiAxNS4zOSAxNC41NTEgMTguNjY5IDguNTE1IDM5LjU3NiAwIDAgMzIuOTQtMTAwLjY1OSAxMzAuNC04Mi43OSA3NS43OTUgMTMuNzUyIDExNC4yNTIgODEuMTUxIDE1OS4wMjQgMTA1LjA5NyA0NC43MzMgMjMuOTA1IDY1LjYgMjMuMDY2IDc4Ljc5MyAyNi45NDMgMTMuMTkyIDQuMTE4IDU0LjY0NyAxNi43NSA3Ni44NzMgOS44NzQgMjIuMjY3LTYuODc2IDIxLjcwNy0zMC41MDEgMjIuNTQ2LTM4LjIxNyAwIDAgMzYuNDk4LTMxLjA2IDU1LjE2Ny00NS45MzIgMTguNjY5LTE0LjgzIDMyLjE0LTM3LjY1NyAxMTcuMjQ5LTQ4LjY5IiBjbGlwLXBhdGg9InVybCgjYSkiLz48cGF0aCBzdHJva2UtbWl0ZXJsaW1pdD0iOCIgc3Ryb2tlLXdpZHRoPSIuNjQiIHN0cm9rZT0iIzM0MzQzNCIgZmlsbD0ibm9uZSIgZD0iTTQyNS4wNjIgMjA2Ljk1NWM1NC4zNjcgOS4wMzQgNTcuMDg2LTQ1Ljg5MyA1Ny4wODYtNDUuODkzbS0xMTcuMTI5LTM4LjQ3NnMtMTIuMzUzLTEuMS01NC42ODcgMTQuNjVNMTE3Ljg4OSAyMS43ODdzLTE1LjExMSAxMi43MTItMzEuMzQxIDM1LjMzOCIvPjxwYXRoIHN0cm9rZS1taXRlcmxpbWl0PSI4IiBzdHJva2UtbGluZWNhcD0icm91bmQiIHN0cm9rZS13aWR0aD0iLjQ4IiBzdHJva2U9IiMzNDM0MzQiIGZpbGw9Im5vbmUiIGQ9Ik0zMjUuMjAzIDEzOS44NzVzLTIzLjkwNiA0LjY3Ny0zOC40NzcgNC45NTdjLTguNTM1LjI4LTIyLjI4NiAxLjM2LTIyLjI4NiAxLjM2TTEwNy45NzUgNjYuOHMtMTMuNzEyIDMuODE3LTE5Ljc0OCAxNC4xNSIvPjxwYXRoIHN0cm9rZS1taXRlcmxpbWl0PSI4IiBzdHJva2UtbGluZWNhcD0icm91bmQiIHN0cm9rZS13aWR0aD0iLjMyIiBzdHJva2U9IiMzNDM0MzQiIGZpbGw9Im5vbmUiIGQ9Ik01NzMuNjkyIDEwOS4wMTRjMC03LjY3NS0xLjExOS0xNS4zOS0uNTYtMjMuMTA2LjU2LTUuNzU3IDIuNDgtMTEuMjczIDEuOTYtMTcuMzEtLjI4LTIuMTk4LTEuNC03Ljk5NS0xLjQtOC44MzRNNTYxLjA2IDExNS41N2MuMjQtMTAuNjc0LTYuMDM2LTIyLjcwNi03Ljk5NS0zMy40Mm0tMi44NzggNDIuMzc1Yy00LjYzOC0xMC40MzQtMTMuMTEzLTE4LjcxLTE5LjY2OS0yOC4wNjMtNi44NzUtOS42MzUtOS41OTQtMjAuMzQ4LTEzLjk5MS0zMS4xMDJtMjMuMTA2IDcwLjY3OGMtOS45MTQtOC4yNzUtMjIuMzA3LTE4Ljc1LTI3LjgyMy0zMC42MjJtMTEuNTEzIDQyLjY5NGMtNy42NzYtNC45MTctMTUuNjMtMTMuMTkyLTIxLjQyNy0xOC4xNDltNy41MTUgMjkuNDIyYy02LjAzNi0yLjE1OC0xMC45OTMtNS4xNTYtMTYuMjMtOC43MTRtOTkuODU5LTQ5Ljk3YzMuOTE4LTQuODc3IDcuNTU2LTE1LjI3IDEyLjMxMy0xNy4xOW0tMzY5LjIxNiA0MS45NTVjNy40MzUuMjYgMTMuNzcyLTEuNjM5IDIwLjY2Ny00LjA3OCAxMC43MzQtMy41MzcgMjIuNTY3LTMuODE3IDMzLjMtNi41MzZtLTY4Ljc1OCAwYzcuNDM1LTQuMTE3IDE0LjU5MS04LjUzNCAyMC45MDctMTQuMDUxIDExLjAxNC05LjY1NCAxNy44OS0xOS44NDggMzEuNjIxLTI2LjQ4NG0tNjMuODgxIDMxLjM0MWMyLjQ3OC00LjA5OCA3LjE1NS02Ljg1NiA5LjkxNC0xMS4yMzMgNC42NzctNy45NTUgNy40MzUtMTcuNTUgMTYuMjMtMjEuOTQ3bS00MC41MzYgMjMuMTA2YzQuNjc4LTcuNDM1IDcuMTM2LTE0Ljg3IDkuNjE1LTIzLjY4NiA0LjM5Ny0xNC44OSAxNS4zNy0yNy4wMjMgMjkuMDgyLTMzLjY0TTEwOC40NTQgNzYuNzE0YzEuOTQtNS4yMzcgNC43MTctMTAuNzM0IDYuNjU2LTE2LjI1IDIuNDc5LTYuODk2IDQuMTM4LTIyLjYwNyAxMC43NzQtMjYuMjA1bS0zLjk5OCA0MS4yNTVjMS42OC00LjExNyA0LjE1OC04LjUzNSA2LjkzNi0xMS44NTMgNC43MTctNi4zMzYgMTMuMDEyLTEwLjE5MyAxNi44OS0xNy4wOW0tOS42NzQgMzAuMTQzYzEuMDk5LTYuNjE2IDkuMzM0LTEwLjQ3NCAxMy40MzEtMTQuNjMybS04MS4wNyAyOC41NDNjLTQuNzE4LTkuMDU0LTIuNzY5LTIxLjY4Ny0zLjMyOC0zMS41OG0tMy4yMjggMzUuMzM4Yy0xLjM3LTMuNTQ4LTQuMzk4LTYuMjg2LTYuMzI3LTkuNTY0LTMuMDI4LTQuNjQ4LTMuODQ3LTkuNTc1LTUuNTA2LTE0LjUwMm0zLjM1OCAzMS41ODFjLTEuOTItNC45NTctNi44NTYtOC44MTQtMTAuMTU0LTEyLjk1Mk0zMS40NiAxMjguNzYyYy0yLjQ2OC0xLjg5OS01LjIyNi0xLjg5OS03Ljk3NC0yLjQzOS0zLjAyOC0uODItNS43ODctMi40NDgtOC44MTUtMi45OThtMjAuMDY4IDEuMmMtMy4yOTgtMS4xMi03LjE1Ni0zLjkxOC05LjkxNC02LjE1N20zLjUxOCAxNS41OTFjLTEuOTA5LjgyLTMuNTQ4IDEuOTE5LTUuNzM3IDIuMTg4LTMuMDA4LjI3LTUuMTk3IDAtNy45MzUgMS4wOW0yNzAuNzE2IDMzLjI2YzYuNTc2LTkuMTM1IDE4LjA1LTIxLjMwNyAyNy4zNDMtMjIuMTQ3bS03LjUxNSAzMi45NGMzLjAxOC04Ljc5NSAxOS4xODgtMTYuMjMgMjYuMzA0LTIyLjI4NiAxMS4yMzMtOS42MzUgMjcuMTI0LTE1LjEzMSAzNy4yNTctMjUuMDQ1bS00OS40OSA1Ni4yODZjMTEuODMzLTQuNjk3IDM0LjY2LTExLjg5MyA0Ni4yMTItMjIuMTQ3bS0zMC42MjEgMzAuODYyYzIwLjAwOC04LjE5NiAzNy44MTctOS4yNzUgNTkuMTY0LTkuODM1Ii8+PHBhdGggc3Ryb2tlLW1pdGVybGltaXQ9IjgiIHN0cm9rZS1saW5lY2FwPSJyb3VuZCIgc3Ryb2tlLXdpZHRoPSIuNDgiIHN0cm9rZT0iIzM0MzQzNCIgZmlsbD0ibm9uZSIgZD0iTTIwMS4wMzggNDMuMjE0cy0yMS45NjcgOS45MzQtMzEuMDIxIDE2LjgxYy0xMy4xNzIgOS45MTQtMTUuMTEgMTUuOTctMTUuMTEgMTUuOTciLz48cGF0aCBmaWxsLXJ1bGU9ImV2ZW5vZGQiIGZpbGw9IiNmZmYiIGQ9Ik0yMzEuMTggMjEuNTY3czE3LjA3LTE2LjQ5IDQ0LjU5My0xLjM4YzI3LjUyMyAxNS4zOTEgMjIuMzA2IDQxLjIxNiAyMi4zMDYgNTYuMDQ3IDAgMCAyLjc1OS00My4xMzQtMjIuNTY2LTUzLjg0OC0yNS4zMjUtMTAuNDMzLTI5Ljc0Mi03LjY3NS00NC4zMzMtLjgyeiIgY2xpcC1wYXRoPSJ1cmwoI2EpIi8+PHBhdGggZmlsbC1ydWxlPSJldmVub2RkIiBmaWxsPSIjZmZmIiBkPSJNMTQzLjU1MyAyOC4yMjNzLTEwLjM5NC0xMi4zNTMtMjAuODA3LTcuNjc1Yy0xMC42OTQgNC42NTctMTEuNzczIDE0LjgxLTEwLjEzNCAyNy4xNDMgMCAwLTIuNDc5LTIwLjg0NyA5LjU3NC0yNi4wNDQgMTIuMDczLTQuOTM3IDIxLjM2NyA2LjU3NiAyMS4zNjcgNi41NzZ6TTc4LjA3MyA1MC4ycy0xOC45MzktMjAuODk4LTM5LjUxNi03Ljk3NkMxOC4yMzkgNTUuMTU3IDI2LjIwNCA2OC4wOCAzMC4wNDIgNzguNzkyYzAgMC0xMy40NTItMjMuMzY2IDkuMDY0LTM1LjQ1OEM2MS44ODIgMzEuNTEgNzguMDczIDUwLjIgNzguMDczIDUwLjJ6bS00Ni44NTIgNjIuMzMycy02Ljg4Ni44My0xMC43NDMgMS4xMWMtMy41NzguMjY5LTkuMzY1IDEuMDk4LTEyLjQwMyA3Ljk5NC0yLjc1OCA2Ljg4Ni0uMjcgOS42NDQgMS45MjkgMTQuODgxIDAgMC00LjQwNy02Ljg4Ni0uNTUtMTQuMDUxIDMuODU4LTcuMTc2IDMuMDI4LTYuMDY3IDcuOTk1LTYuODk2IDQuNjg4LTEuMSAxMi40MDMtMS45MjkgMTMuNzcyLTMuMDM4em00MTAuMzkxIDEwNi40OTVzLTIzLjU4NS02LjU5Ni0zNS45MzgtMzQuMzM5Yy0xMi4wNzMtMjcuNDYzLTcuMzk1LTUyLjQ4OC0zNy42MTctNTkuOTI0IDAgMCAxNy4zMSA1LjUxNyAyMi41MDYgMjAuOTA4IDUuMjM3IDE1LjM5IDE1Ljk1IDY3LjMxOSA1MS4wNSA3My4zNTV6bTQxLjg5NS01MS40MDlzMS4xMi00Mi44NTQtLjUyLTU0LjY4NmMtMS4zOTktMTEuNzkzLTIuNTE4LTcyLjI3NyA1NS45MjYtNzAuMzE4IDAgMC0xOS4yNjguNTItMzcuMjE3IDEzLjcxMi0xNy42MyAxMy40NzItMTguNzA5IDQxLjc3NS0xNi4yMyA2NS40IDIuNDc4IDIzLjY2Ni0xLjk1OSA0NS44OTItMS45NTkgNDUuODkyeiIvPjxwYXRoIGZpbGwtcnVsZT0iZXZlbm9kZCIgZmlsbD0iI2FhNzNhYSIgZD0iTTg4Ljk0NiA1Ni45ODVjMS45MzkgMi4yIDUuMjc3IDQuMTE4IDcuNzU1IDUuNzc3IDIuNzc5IDEuOTE5IDYuMDk3IDMuNTU4IDkuNjk1IDIuMTk5IDMuMzE4LTEuMSA0LjY5Ny0zLjI5OCA0LjE1Ny02LjYxNi0uMjgtMy4wMTktLjI4LTcuNDE2LTEuMzgtMTAuMTc0LTMuMDU3IDMuMzE4LTQuOTk2IDYuODc2LTkuNDEzIDcuNzE1LTMuMzM4LjgyLTcuNDc2LS41Ni0xMC41MzQgMS4zNnptMzkyLjQ4MiAxMTUuMzUxcy05LjAzNCA0My4wOTMtNTIuNzY4IDM1LjQxOGw1LjUxNyA0LjM5N3M0My40MTQgNS4xOTcgNDcuMjUxLTM5LjgxNXoiLz48cGF0aCBmaWxsLXJ1bGU9ImV2ZW5vZGQiIGZpbGw9IiNkN2IyZDEiIGQ9Ik01NjIuOTM5IDU0LjY0N2M1LjQ3NyAyLjc1OCA1LjE5NyA4LjIzNSA1LjE5NyAxMy43NTIuMjggNi41OTYgMS42MzkgMTAuNzUzLTUuMTk3IDEwLjE5My02LjMxNi0uODQtNy4xMTYtMS4xMTktMTIuMzEzIDIuNDc5LTQuMzk3IDMuMDM4LTcuNjc1IDMuMzE4LTEyLjA3MiAwLTcuMzk2LTUuNzk3LTEzLjE1Mi0yMi41ODYtMjUuMjI1LTE5LjU0OC04LjQ3NSAyLjE5OC01Ljc1NyAxMy43NTEtMi43MTggMTguOTg4IDEuNjM5IDMuMzE4IDguNzU0IDExLjI3MyA3LjkxNSAxNC44NzEtLjI0LjU2IDAgMS4wOC0uMjQgMS45MTktNS41MTcuMjgtOS4wNzUtLjU2LTkuNTk0IDUuNzk3LS41NiA0LjY3NyA0LjA3NyAxMi4xMTIuOCAxNS45NS0yLjk5OSAzLjMxOC03LjY3Ni0uMjgtMTEuMjM0IDIuMTk5LTQuOTE3IDMuNTk3IDEuMDggMTAuNzUzLTIuNzU4IDE0LjU5LTcuNjc2IDguNTE2LTkuNTk0LTE5LjI2OC05LjAzNS0yMy4xMDUgMS4xMi05LjkxNCAxLjEyLTIwLjk0OCA0LjY3Ny0zMC41ODIgNS43NTctMTQuNTUxIDE2LjQzLTI5LjE0MiAzMi42Mi0zMS45IDEyLjU5My0yLjIgMjYuNTg0LTQuMTU4IDM3LjUzOCAzLjU1N3pNMzc0LjU5MyAxMzMuMjRjMy4yOTggOC4yNTQtMTUuMzcgMTcuMDQ5LTIxLjY4NyAyMC45MDctNC42NTcgMi43NTgtMjAuNTg3IDEwLjk5My0xOS43NDggMTcuMzMgMS4xIDkuMDc0IDMwLjE4Mi0xMC43MzQgMzcuNTk3LTcuOTc2IDE1LjM3MSA1LjQ5Ny0xMC40MzMgMTUuNjctMTEuNzkzIDE5LjI0OCA3LjEzNiA0LjExOCAxNS45MS0xLjkxOSAyMy4zMjYtMS45MTkgNy45NTUgMCAxMC40MzQgNS40OTcgMTcuMjkgNi44NTYuNTQtOC43OTQtNS4yMTctMjAuODg3LTguNzc1LTI5LjE0Mi0zLjAzOC03LjQxNi03Ljk3NS0xOC42ODktMTMuNzMyLTI0LjIwNXpNMjI5Ljk4IDI4LjQ2M2M2Ljg1NiAyLjc1OCAxNy4wMSA3LjcxNSA5LjMzNSAxNi43OS00LjExOCA0Ljk1Ny0xMC43MTQgNy40MTUtMTUuMzkgMTIuMzcyLTMuMjc5IDMuNTc4LTExLjUzNCAxNS42OS0uNTQgMTMuNDkyIDQuOTM3LTEuMSAxNS42NS0xMi45MzIgMjAuNTg3LTUuMjM3IDMuMjk4IDQuOTU3LTQuMTE3IDEwLjczNC0zLjgzOCAxNS40MS44MiAxMi4xMTMgMTUuMzcxLS44MTkgMTguOTQ5LTQuMzk3IDQuMTE3LTQuMTM3IDE0LjI3MS0xNC41OSAxOS43NjgtNy4xNTUgNC4zOTcgNi4wNTYtMi40NzggMTQuODUtNi41OTYgMTguOTg4LTQuMTE4IDQuMTE4LTEyLjA3MyA3LjEzNi04LjIzNSAxMy43NTIgMy4yOTggNS43NzYgOS4zMzQgNy40MTUgMTUuMTEgNS40OTcgMTEuMjU0LTMuNTc4IDE1LjY1MS0xOC45ODkgMTcuMDMtMjkuNDQzIDIuMTgtMTcuODY5LTQuMzk3LTQwLjcxNS0xOC45NDgtNTEuNDQ4LTEzLjQ3Mi05Ljg5NC0zNC41OTktMTAuNzM0LTQ3LjIzMS4yOHptLTExMS4xMTIgNi4zNTZjNS4yMTctNC4zOTcgMTcuMzMtNy40MzYgMTQuODUxIDMuNTc4LS41NiAzLjMxOC05LjM1NCAxMS4yOTMtMS4zOCAxMi4xMTIgNS43NzcuODQgMTMuNDczLTEzLjc1MSAxOS41MjktNy4xNTUgMy41NzggNC4xMzctMi43MzggOC4yNzUtMy41NzggMTIuNjcyIDIuNzU4IDMuMDE4IDQuOTU3LjI4IDcuOTc1LjI4IDIuNDc5LS4yOCA0LjEzOCAxLjM3OSA2LjMzNiAxLjM3OSA2LjA1NyAwIDExLjI3NC01Ljc5NiAxNi43Ny03LjQzNS0xLjM1OS0zLjAzOS0xMy4xOTItNi44OTYtMTYuNzctOC44MTUtMi40NzgtMS4zOC01Ljc3Ni0zLjAzOC04LjUzNC00LjEzOC00LjExOC0xLjYzOS01Ljc3Ny0yLjQ3OC05Ljg5NC00Ljk1Ny04LjI1NS01LjQ5Ni0yNC40ODYtMTcuMzUtMjcuMjQ0IDB6TTgxLjcyIDU3Ljg1NWMyLjc0OSAzLjI4OC0zLjg0NyA0LjEwNy02LjA0NiA0LjM4Ny01LjQ5Ny44Mi0zLjAyOC0yLjE4OC02LjU5Ni00LjY1Ny0yLjc0OC0yLjE5OS04LjI1NS0xLjY0OS0xMC40NTQgMS42NC0xLjM2OSAyLjE5OC44MyA4LjIyNC0yLjc0OCA4LjQ5NC0zLjI5OC41NS02LjA0Ni00LjY1Ny05LjYyNC0uNTUtMi4xOTkgMi40NjktLjI3IDcuMTI2LTEuOTE5IDkuODc0LTEuMzc5IDIuNDU5LTUuNTA3IDUuNzQ3LTguNTI1IDUuMjA3LTMuODQ3LS41NS00LjY3Ny01LjIwNy01LjIyNy04LjQ5NS0yLjQ3OC0xMi42MTIgMS45My0yNS4yMTQgMTQuODUxLTMwLjE1MSA2LjMyNy0yLjQ2OSAxNC44NDEtMS4zNyAyMS4xNjguMjggMy44NDcgMS4wODkgNy40MjUgMi43MzggOS4zNTQgNi4yOTYgMS4xIDIuMTk4IDEuOTE5IDQuMzg3IDMuODQ4IDUuMjA2eiIvPjxwYXRoIGZpbGwtcnVsZT0iZXZlbm9kZCIgZmlsbD0iI2ZmZiIgZD0iTTM0MS40MzMgMjM0LjA1OHMtNTcuNDA1LTEwLjQzNC0xMTguMTI4LTc5LjM5MkMxODEuODEgMTA3LjY5NSAxMTcuMjQ5IDgzLjUxIDYwLjY0MyAxMjYuOTIzYzAgMCA0NS4zMzMtNDguMzcgMTEyLjY1Mi0xMi42NTIgNzUuODM0IDQwLjM5NSA0OC4zNSA3Mi41MzYgMTY4LjEzOCAxMTkuNzg3ek0yMS4zNjcgMTU0LjQyNnMtMi4yMTkgMTYuMDcgMTkuOTI4IDIuNDk5YzAgMC0xOC4yNjkgOS42OTQtMTkuOTI4LTIuNDk5eiIvPjxwYXRoIGZpbGwtcnVsZT0iZXZlbm9kZCIgZmlsbD0iI2Q4YjQ2NCIgZD0iTTQxNS40NjggMTk0Ljg0MnM2LjA3NyA3LjQzNSAxMC43MTQgMTAuMTU0YzAgMCA0NC4yNTMgMTIuMzUyIDUzLjU2Ny0zNy42MTcgMCAwLTM1LjEzOCAzNC42MTktNjQuMjggMjcuNDYzeiIvPjxwYXRoIGZpbGwtcnVsZT0iZXZlbm9kZCIgZmlsbD0iI2Q4YjA1NyIgZD0iTTUyMC4wNDUgMjA0LjE1NnMtNTcuNjQ1IDgzLjg3LTE3Mi42OTYgNjIuNzIyYzAgMCA5NS4zMDMgMTguNzA5IDE3Mi42OTYtNjIuNzIyek0xNjQuNSAxNTYuODI1cy0yOS4wNjItMzEuNTItOTQuOTAyLTEwLjQxNGMwIDAgNjEuNzIyLTI0LjY4NSA5NC45MDIgMTAuNDE0em01ODIuMzY3IDE4LjYyOXMtMTUuOTkgMjkuNjIyIDE3LjAzIDQ2LjYxMWMwIDAtMjYuMTA0LTEyLjU5Mi0xNy4wMy00Ni42MTF6bTMuNTk4LTQ0Ljc3NHMtMTIuNTkyLTMwLjYyLTg3Ljg2Ny0zNS44MTdjMCAwIDczLjg3NiAyLjE5OCA4Ny44NjcgMzUuODE4eiIvPjxwYXRoIGZpbGwtcnVsZT0iZXZlbm9kZCIgZmlsbD0iI2ZmZiIgZD0iTTUzMy4yMzcgMTU3LjU0NXMtMzEuODYgODEuMzktMTQyLjU1NCA4My4wM2MwIDAgOTkuNDYgMTAuOTkzIDE0Mi41NTQtODMuMDN6bTIwMy43OTYtNDUuNzMzczMzLjQyIDIxLjcwNyAyMC4wMjggNTMuMjQ4YzAgMCAxMS43NTMtMjUuNzg0LTIwLjAyOC01My4yNDh6Ii8+PHBhdGggZmlsbC1ydWxlPSJldmVub2RkIiBmaWxsPSIjZmZmIiBkPSJNNzkwLjA0MSAyMzMuNjU4czI5LjkwMiAxNy41OSAyMS43MDcgNjIuODQyYzAgMCA2LjI3Ni0zNy41NzctMjEuNzA3LTYyLjg0MnoiIGNsaXAtcGF0aD0idXJsKCNhKSIvPjxwYXRoIGZpbGwtcnVsZT0iZXZlbm9kZCIgZmlsbD0iI2ZmZiIgZD0iTTQ3OC4zMSAxOTcuMzZzLTEuMDggMjQuMjI2LTMwLjM4MSAyMC4zODhjMCAwIDI0LjY2NSAzLjAzOCAzMC4zODEtMjAuMzg4eiIvPjwvc3ZnPg==;" vertex="1" parent="RZr8qnZTbfW7pYuDrzdx-33">
          <mxGeometry x="22.5" y="14.310000000000002" width="65" height="31.38" as="geometry" />
        </mxCell>
        <mxCell id="RZr8qnZTbfW7pYuDrzdx-37" value="&lt;font style=&quot;font-size: 7px;&quot;&gt;NCBI&lt;/font&gt;" style="shape=cylinder3;whiteSpace=wrap;html=1;boundedLbl=1;backgroundOutline=1;size=5;fontSize=10;fillColor=#cce5ff;strokeColor=#36393d;aspect=fixed;" vertex="1" parent="RZr8qnZTbfW7pYuDrzdx-33">
          <mxGeometry x="87.49949367088607" width="39.24050632911393" height="23.544303797468356" as="geometry" />
        </mxCell>
        <mxCell id="RZr8qnZTbfW7pYuDrzdx-46" value="" style="group" vertex="1" connectable="0" parent="RZr8qnZTbfW7pYuDrzdx-1">
          <mxGeometry x="420" y="270" width="190" height="72" as="geometry" />
        </mxCell>
        <mxCell id="RZr8qnZTbfW7pYuDrzdx-47" value="" style="rounded=0;whiteSpace=wrap;html=1;arcSize=5;fontStyle=1;fillColor=#cce5ff;strokeColor=none;" vertex="1" parent="RZr8qnZTbfW7pYuDrzdx-46">
          <mxGeometry width="190" height="60" as="geometry" />
        </mxCell>
        <mxCell id="RZr8qnZTbfW7pYuDrzdx-48" value="&lt;div style=&quot;font-size: 11px;&quot;&gt;&lt;font style=&quot;font-size: 11px;&quot;&gt;tximport&lt;/font&gt;&lt;/div&gt;" style="rounded=1;whiteSpace=wrap;html=1;fontStyle=1;fillColor=#fff2cc;strokeColor=#FFF2CC;" vertex="1" parent="RZr8qnZTbfW7pYuDrzdx-46">
          <mxGeometry x="87.69058823529416" y="10" width="89.41176470588235" height="20" as="geometry" />
        </mxCell>
        <mxCell id="RZr8qnZTbfW7pYuDrzdx-49" value="&lt;font style=&quot;font-size: 9px;&quot; color=&quot;#ffffff&quot;&gt;Expressão diferencial&lt;br&gt;&lt;/font&gt;" style="rounded=0;whiteSpace=wrap;html=1;arcSize=5;fontStyle=1;fillColor=#647687;strokeColor=none;" vertex="1" parent="RZr8qnZTbfW7pYuDrzdx-46">
          <mxGeometry y="60" width="190" height="12" as="geometry" />
        </mxCell>
        <mxCell id="RZr8qnZTbfW7pYuDrzdx-50" value="&lt;font style=&quot;font-size: 11px;&quot;&gt;STAR&lt;/font&gt;" style="rounded=1;whiteSpace=wrap;html=1;fontStyle=1;fillColor=#fff2cc;strokeColor=#FFF2CC;" vertex="1" parent="RZr8qnZTbfW7pYuDrzdx-46">
          <mxGeometry x="12.897647058823553" y="10" width="67.05882352941177" height="20" as="geometry" />
        </mxCell>
        <mxCell id="RZr8qnZTbfW7pYuDrzdx-51" value="&lt;font style=&quot;font-size: 11px;&quot;&gt;Salmon&lt;/font&gt;" style="rounded=1;whiteSpace=wrap;html=1;fontStyle=1;fillColor=#fff2cc;strokeColor=#FFF2CC;" vertex="1" parent="RZr8qnZTbfW7pYuDrzdx-46">
          <mxGeometry x="12.897647058823553" y="30" width="67.05882352941177" height="20" as="geometry" />
        </mxCell>
        <mxCell id="RZr8qnZTbfW7pYuDrzdx-52" value="&lt;div style=&quot;font-size: 11px;&quot;&gt;DESeq2&lt;/div&gt;" style="rounded=1;whiteSpace=wrap;html=1;fontStyle=1;fillColor=#fff2cc;strokeColor=#FFF2CC;" vertex="1" parent="RZr8qnZTbfW7pYuDrzdx-46">
          <mxGeometry x="87.69058823529416" y="30" width="89.41176470588235" height="20" as="geometry" />
        </mxCell>
        <mxCell id="RZr8qnZTbfW7pYuDrzdx-53" value="" style="group" vertex="1" connectable="0" parent="RZr8qnZTbfW7pYuDrzdx-1">
          <mxGeometry x="315" y="364.38" width="205" height="72" as="geometry" />
        </mxCell>
        <mxCell id="RZr8qnZTbfW7pYuDrzdx-54" value="" style="rounded=0;whiteSpace=wrap;html=1;arcSize=5;fontStyle=1;fillColor=#cce5ff;strokeColor=none;" vertex="1" parent="RZr8qnZTbfW7pYuDrzdx-53">
          <mxGeometry width="190" height="60" as="geometry" />
        </mxCell>
        <mxCell id="RZr8qnZTbfW7pYuDrzdx-55" value="&lt;font style=&quot;font-size: 9px;&quot; color=&quot;#ffffff&quot;&gt;Interação lncRNA-proteínas&lt;/font&gt;" style="rounded=0;whiteSpace=wrap;html=1;arcSize=5;fontStyle=1;fillColor=#647687;strokeColor=none;" vertex="1" parent="RZr8qnZTbfW7pYuDrzdx-53">
          <mxGeometry y="60" width="190" height="12" as="geometry" />
        </mxCell>
        <mxCell id="RZr8qnZTbfW7pYuDrzdx-56" value="&lt;font style=&quot;font-size: 11px;&quot;&gt;lncPro&lt;/font&gt;" style="rounded=1;whiteSpace=wrap;html=1;fontStyle=1;fillColor=#fff2cc;strokeColor=#FFF2CC;" vertex="1" parent="RZr8qnZTbfW7pYuDrzdx-53">
          <mxGeometry x="11.54" y="10" width="78.46" height="20" as="geometry" />
        </mxCell>
        <mxCell id="RZr8qnZTbfW7pYuDrzdx-57" value="&lt;font style=&quot;font-size: 11px;&quot;&gt;Capsule-LPI&lt;/font&gt;" style="rounded=1;whiteSpace=wrap;html=1;fontStyle=1;fillColor=#fff2cc;strokeColor=#FFF2CC;" vertex="1" parent="RZr8qnZTbfW7pYuDrzdx-53">
          <mxGeometry x="11.54" y="30" width="78.46" height="20" as="geometry" />
        </mxCell>
        <mxCell id="RZr8qnZTbfW7pYuDrzdx-58" value="&lt;font style=&quot;font-size: 11px;&quot;&gt;Pathview&lt;/font&gt;" style="rounded=1;whiteSpace=wrap;html=1;fontStyle=1;fillColor=#fff2cc;strokeColor=#FFF2CC;" vertex="1" parent="RZr8qnZTbfW7pYuDrzdx-53">
          <mxGeometry x="100" y="10" width="70" height="40" as="geometry" />
        </mxCell>
        <mxCell id="RZr8qnZTbfW7pYuDrzdx-59" value="&lt;font style=&quot;font-size: 7px;&quot;&gt;KEGG&lt;/font&gt;" style="shape=cylinder3;whiteSpace=wrap;html=1;boundedLbl=1;backgroundOutline=1;size=5;fontSize=10;fillColor=#cce5ff;strokeColor=#36393d;aspect=fixed;" vertex="1" parent="RZr8qnZTbfW7pYuDrzdx-53">
          <mxGeometry x="160" y="35" width="40" height="24" as="geometry" />
        </mxCell>
        <mxCell id="RZr8qnZTbfW7pYuDrzdx-60" value="" style="group" vertex="1" connectable="0" parent="RZr8qnZTbfW7pYuDrzdx-1">
          <mxGeometry x="524" y="364.38" width="170" height="72" as="geometry" />
        </mxCell>
        <mxCell id="RZr8qnZTbfW7pYuDrzdx-61" value="" style="rounded=0;whiteSpace=wrap;html=1;arcSize=5;fontStyle=1;fillColor=#cce5ff;strokeColor=none;" vertex="1" parent="RZr8qnZTbfW7pYuDrzdx-60">
          <mxGeometry width="160" height="60" as="geometry" />
        </mxCell>
        <mxCell id="RZr8qnZTbfW7pYuDrzdx-62" value="&lt;font style=&quot;font-size: 9px;&quot; color=&quot;#ffffff&quot;&gt;Interação lncRNA-promotores&lt;/font&gt;" style="rounded=0;whiteSpace=wrap;html=1;arcSize=5;fontStyle=1;fillColor=#647687;strokeColor=none;" vertex="1" parent="RZr8qnZTbfW7pYuDrzdx-60">
          <mxGeometry y="60" width="160" height="12" as="geometry" />
        </mxCell>
        <mxCell id="RZr8qnZTbfW7pYuDrzdx-63" value="&lt;font style=&quot;font-size: 11px;&quot;&gt;BEDTools&lt;/font&gt;" style="rounded=1;whiteSpace=wrap;html=1;fontStyle=1;fillColor=#fff2cc;strokeColor=#FFF2CC;" vertex="1" parent="RZr8qnZTbfW7pYuDrzdx-60">
          <mxGeometry x="11.539999999999964" y="10" width="68.46" height="20" as="geometry" />
        </mxCell>
        <mxCell id="RZr8qnZTbfW7pYuDrzdx-64" value="&lt;font style=&quot;font-size: 11px;&quot;&gt;Triplexator&lt;/font&gt;" style="rounded=1;whiteSpace=wrap;html=1;fontStyle=1;fillColor=#fff2cc;strokeColor=#FFF2CC;" vertex="1" parent="RZr8qnZTbfW7pYuDrzdx-60">
          <mxGeometry x="11.539999999999964" y="30" width="68.46" height="20" as="geometry" />
        </mxCell>
        <mxCell id="RZr8qnZTbfW7pYuDrzdx-65" value="&lt;font style=&quot;font-size: 11px;&quot;&gt;Cutoff Finder&lt;br&gt;&lt;/font&gt;" style="rounded=1;whiteSpace=wrap;html=1;fontStyle=1;fillColor=#fff2cc;strokeColor=#FFF2CC;" vertex="1" parent="RZr8qnZTbfW7pYuDrzdx-60">
          <mxGeometry x="90" y="10" width="60" height="40" as="geometry" />
        </mxCell>
        <mxCell id="RZr8qnZTbfW7pYuDrzdx-66" value="" style="group" vertex="1" connectable="0" parent="RZr8qnZTbfW7pYuDrzdx-1">
          <mxGeometry x="315" y="460" width="369" height="72" as="geometry" />
        </mxCell>
        <mxCell id="RZr8qnZTbfW7pYuDrzdx-67" value="" style="rounded=0;whiteSpace=wrap;html=1;arcSize=5;fontStyle=1;fillColor=#cce5ff;strokeColor=none;" vertex="1" parent="RZr8qnZTbfW7pYuDrzdx-66">
          <mxGeometry width="369" height="60" as="geometry" />
        </mxCell>
        <mxCell id="RZr8qnZTbfW7pYuDrzdx-68" value="&lt;font style=&quot;font-size: 9px;&quot; color=&quot;#ffffff&quot;&gt;Interação proteína-proteína&lt;/font&gt;" style="rounded=0;whiteSpace=wrap;html=1;arcSize=5;fontStyle=1;fillColor=#647687;strokeColor=none;" vertex="1" parent="RZr8qnZTbfW7pYuDrzdx-66">
          <mxGeometry y="60" width="369" height="12" as="geometry" />
        </mxCell>
        <mxCell id="RZr8qnZTbfW7pYuDrzdx-69" value="&lt;font style=&quot;font-size: 11px;&quot;&gt;OrthoFinder&lt;/font&gt;" style="rounded=1;whiteSpace=wrap;html=1;fontStyle=1;fillColor=#fff2cc;strokeColor=#FFF2CC;" vertex="1" parent="RZr8qnZTbfW7pYuDrzdx-66">
          <mxGeometry x="12.819774193548389" y="10" width="93.39270967741933" height="40" as="geometry" />
        </mxCell>
        <mxCell id="RZr8qnZTbfW7pYuDrzdx-70" value="&lt;font style=&quot;font-size: 11px;&quot;&gt;DeepTrio&lt;/font&gt;" style="rounded=1;whiteSpace=wrap;html=1;fontStyle=1;fillColor=#fff2cc;strokeColor=#FFF2CC;" vertex="1" parent="RZr8qnZTbfW7pYuDrzdx-66">
          <mxGeometry x="147.87377419354843" y="10" width="83.3225806451613" height="40" as="geometry" />
        </mxCell>
        <mxCell id="RZr8qnZTbfW7pYuDrzdx-71" value="&lt;font style=&quot;font-size: 7px;&quot;&gt;STRING&lt;/font&gt;" style="shape=cylinder3;whiteSpace=wrap;html=1;boundedLbl=1;backgroundOutline=1;size=5;fontSize=10;fillColor=#cce5ff;strokeColor=#36393d;aspect=fixed;" vertex="1" parent="RZr8qnZTbfW7pYuDrzdx-66">
          <mxGeometry x="219.29312903225807" y="35" width="40" height="24" as="geometry" />
        </mxCell>
        <mxCell id="RZr8qnZTbfW7pYuDrzdx-72" value="&lt;font style=&quot;font-size: 7px;&quot;&gt;TriTrypDB&lt;/font&gt;" style="shape=cylinder3;whiteSpace=wrap;html=1;boundedLbl=1;backgroundOutline=1;size=5;fontSize=10;fillColor=#cce5ff;strokeColor=#36393d;aspect=fixed;" vertex="1" parent="RZr8qnZTbfW7pYuDrzdx-66">
          <mxGeometry x="88.35764516129034" y="35" width="40" height="24" as="geometry" />
        </mxCell>
        <mxCell id="RZr8qnZTbfW7pYuDrzdx-73" value="&lt;font style=&quot;font-size: 11px;&quot;&gt;Cutoff Finder&lt;br&gt;&lt;/font&gt;" style="rounded=1;whiteSpace=wrap;html=1;fontStyle=1;fillColor=#fff2cc;strokeColor=#FFF2CC;" vertex="1" parent="RZr8qnZTbfW7pYuDrzdx-66">
          <mxGeometry x="278.8092580645162" y="10" width="77.37096774193549" height="40" as="geometry" />
        </mxCell>
        <mxCell id="RZr8qnZTbfW7pYuDrzdx-77" value="&lt;div&gt;Processamento&lt;/div&gt;" style="text;html=1;strokeColor=none;fillColor=#647687;align=center;verticalAlign=middle;whiteSpace=wrap;rounded=0;rotation=-90;fontColor=#FFFFFF;fontStyle=1" vertex="1" parent="RZr8qnZTbfW7pYuDrzdx-1">
          <mxGeometry x="654.76" y="195.5" width="110.5" height="20" as="geometry" />
        </mxCell>
        <mxCell id="RZr8qnZTbfW7pYuDrzdx-78" value="" style="text;html=1;strokeColor=none;fillColor=#F0A30A;align=center;verticalAlign=middle;whiteSpace=wrap;rounded=0;rotation=-90;fontColor=#000000;" vertex="1" parent="RZr8qnZTbfW7pYuDrzdx-1">
          <mxGeometry x="654.76" y="85.25" width="110.5" height="20" as="geometry" />
        </mxCell>
        <mxCell id="RZr8qnZTbfW7pYuDrzdx-80" style="edgeStyle=orthogonalEdgeStyle;rounded=0;orthogonalLoop=1;jettySize=auto;html=1;exitX=0.5;exitY=1;exitDx=0;exitDy=0;entryX=0.5;entryY=0;entryDx=0;entryDy=0;endArrow=blockThin;endFill=1;" edge="1" parent="RZr8qnZTbfW7pYuDrzdx-1" source="RZr8qnZTbfW7pYuDrzdx-49" target="RZr8qnZTbfW7pYuDrzdx-54">
          <mxGeometry relative="1" as="geometry">
            <Array as="points">
              <mxPoint x="515" y="350" />
              <mxPoint x="410" y="350" />
            </Array>
          </mxGeometry>
        </mxCell>
        <mxCell id="RZr8qnZTbfW7pYuDrzdx-81" style="edgeStyle=orthogonalEdgeStyle;rounded=0;orthogonalLoop=1;jettySize=auto;html=1;exitX=0.5;exitY=1;exitDx=0;exitDy=0;entryX=0.5;entryY=0;entryDx=0;entryDy=0;endArrow=blockThin;endFill=1;" edge="1" parent="RZr8qnZTbfW7pYuDrzdx-1" source="RZr8qnZTbfW7pYuDrzdx-49" target="RZr8qnZTbfW7pYuDrzdx-61">
          <mxGeometry relative="1" as="geometry">
            <Array as="points">
              <mxPoint x="515" y="350" />
              <mxPoint x="604" y="350" />
            </Array>
          </mxGeometry>
        </mxCell>
        <mxCell id="0MoapVt36Oy3kZCA_6sw-1" value="" style="group" vertex="1" connectable="0" parent="RZr8qnZTbfW7pYuDrzdx-1">
          <mxGeometry x="410" y="169.5" width="210" height="72" as="geometry" />
        </mxCell>
        <mxCell id="RZr8qnZTbfW7pYuDrzdx-39" value="" style="rounded=0;whiteSpace=wrap;html=1;arcSize=5;fontStyle=1;fillColor=#e1d5e7;strokeColor=none;" vertex="1" parent="0MoapVt36Oy3kZCA_6sw-1">
          <mxGeometry width="210" height="60" as="geometry" />
        </mxCell>
        <mxCell id="RZr8qnZTbfW7pYuDrzdx-40" value="&lt;div style=&quot;font-size: 11px;&quot;&gt;&lt;font style=&quot;font-size: 11px;&quot;&gt;FastQC&lt;/font&gt;&lt;/div&gt;" style="rounded=1;whiteSpace=wrap;html=1;fontStyle=1;fillColor=#fff2cc;strokeColor=#FFF2CC;" vertex="1" parent="0MoapVt36Oy3kZCA_6sw-1">
          <mxGeometry x="9.788607594936707" y="10" width="78.48101265822785" height="20" as="geometry" />
        </mxCell>
        <mxCell id="RZr8qnZTbfW7pYuDrzdx-41" value="&lt;font style=&quot;font-size: 11px;&quot;&gt;Trimmomatic&lt;/font&gt;" style="rounded=1;whiteSpace=wrap;html=1;fontStyle=1;fillColor=#FFF2CC;strokeColor=#FFF2CC;" vertex="1" parent="0MoapVt36Oy3kZCA_6sw-1">
          <mxGeometry x="102.08227848101268" y="10" width="98.10126582278481" height="40" as="geometry" />
        </mxCell>
        <mxCell id="RZr8qnZTbfW7pYuDrzdx-43" value="&lt;font style=&quot;font-size: 9px;&quot; color=&quot;#ffffff&quot;&gt;&lt;b&gt;&lt;font style=&quot;font-size: 9px;&quot;&gt;Controle de qualidade&lt;/font&gt;&lt;/b&gt;&lt;/font&gt;" style="rounded=0;whiteSpace=wrap;html=1;arcSize=5;fontStyle=1;fillColor=#9673A6;strokeColor=none;" vertex="1" parent="0MoapVt36Oy3kZCA_6sw-1">
          <mxGeometry y="60" width="210" height="12" as="geometry" />
        </mxCell>
        <mxCell id="RZr8qnZTbfW7pYuDrzdx-45" value="&lt;div style=&quot;font-size: 11px;&quot;&gt;&lt;font style=&quot;font-size: 11px;&quot;&gt;MultiQC&lt;/font&gt;&lt;/div&gt;" style="rounded=1;whiteSpace=wrap;html=1;fontStyle=1;fillColor=#fff2cc;strokeColor=#FFF2CC;" vertex="1" parent="0MoapVt36Oy3kZCA_6sw-1">
          <mxGeometry x="9.788607594936707" y="30" width="78.48101265822785" height="20" as="geometry" />
        </mxCell>
        <mxCell id="0MoapVt36Oy3kZCA_6sw-6" style="edgeStyle=orthogonalEdgeStyle;rounded=0;orthogonalLoop=1;jettySize=auto;html=1;entryX=1;entryY=0;entryDx=0;entryDy=0;strokeColor=#FFFFFF;dashed=1;endArrow=none;endFill=0;startArrow=none;startFill=0;strokeWidth=2;dashPattern=1 1;" edge="1" parent="RZr8qnZTbfW7pYuDrzdx-1" target="RZr8qnZTbfW7pYuDrzdx-7">
          <mxGeometry relative="1" as="geometry">
            <mxPoint x="300" y="150" as="sourcePoint" />
            <mxPoint x="300" y="250" as="targetPoint" />
            <Array as="points">
              <mxPoint x="300" y="151" />
            </Array>
          </mxGeometry>
        </mxCell>
        <mxCell id="0MoapVt36Oy3kZCA_6sw-8" style="edgeStyle=orthogonalEdgeStyle;rounded=0;orthogonalLoop=1;jettySize=auto;html=1;exitX=0;exitY=0.5;exitDx=0;exitDy=0;entryX=1;entryY=0.5;entryDx=0;entryDy=0;endArrow=blockThin;endFill=1;" edge="1" parent="RZr8qnZTbfW7pYuDrzdx-1" source="RZr8qnZTbfW7pYuDrzdx-39" target="RZr8qnZTbfW7pYuDrzdx-10">
          <mxGeometry relative="1" as="geometry" />
        </mxCell>
        <mxCell id="0MoapVt36Oy3kZCA_6sw-10" style="edgeStyle=orthogonalEdgeStyle;rounded=0;orthogonalLoop=1;jettySize=auto;html=1;exitX=0.5;exitY=1;exitDx=0;exitDy=0;entryX=0.5;entryY=0;entryDx=0;entryDy=0;endArrow=blockThin;endFill=1;" edge="1" parent="RZr8qnZTbfW7pYuDrzdx-1" source="RZr8qnZTbfW7pYuDrzdx-35" target="RZr8qnZTbfW7pYuDrzdx-39">
          <mxGeometry relative="1" as="geometry">
            <Array as="points">
              <mxPoint x="315" y="150" />
              <mxPoint x="515" y="150" />
            </Array>
          </mxGeometry>
        </mxCell>
        <mxCell id="0MoapVt36Oy3kZCA_6sw-16" style="edgeStyle=orthogonalEdgeStyle;rounded=0;orthogonalLoop=1;jettySize=auto;html=1;exitX=0.5;exitY=1;exitDx=0;exitDy=0;endArrow=blockThin;endFill=1;" edge="1" parent="RZr8qnZTbfW7pYuDrzdx-1" source="RZr8qnZTbfW7pYuDrzdx-17" target="RZr8qnZTbfW7pYuDrzdx-25">
          <mxGeometry relative="1" as="geometry" />
        </mxCell>
        <mxCell id="0MoapVt36Oy3kZCA_6sw-17" style="edgeStyle=orthogonalEdgeStyle;rounded=0;orthogonalLoop=1;jettySize=auto;html=1;exitX=0.5;exitY=1;exitDx=0;exitDy=0;endArrow=blockThin;endFill=1;" edge="1" parent="RZr8qnZTbfW7pYuDrzdx-1" source="RZr8qnZTbfW7pYuDrzdx-11" target="RZr8qnZTbfW7pYuDrzdx-15">
          <mxGeometry relative="1" as="geometry" />
        </mxCell>
        <mxCell id="8A16Rqu3GrUwaFn7HKT3-7" value="" style="group" vertex="1" connectable="0" parent="RZr8qnZTbfW7pYuDrzdx-1">
          <mxGeometry x="95" y="460" width="170" height="72" as="geometry" />
        </mxCell>
        <mxCell id="8A16Rqu3GrUwaFn7HKT3-8" value="" style="rounded=0;whiteSpace=wrap;html=1;arcSize=5;fontStyle=1;fillColor=#F8CECC;strokeColor=none;" vertex="1" parent="8A16Rqu3GrUwaFn7HKT3-7">
          <mxGeometry width="170" height="60" as="geometry" />
        </mxCell>
        <mxCell id="8A16Rqu3GrUwaFn7HKT3-9" value="&lt;font style=&quot;font-size: 9px;&quot; color=&quot;#ffffff&quot;&gt;Remoção de falsos positivos&lt;br&gt;&lt;/font&gt;" style="rounded=0;whiteSpace=wrap;html=1;arcSize=5;fontStyle=1;fillColor=#B85450;strokeColor=none;" vertex="1" parent="8A16Rqu3GrUwaFn7HKT3-7">
          <mxGeometry y="60" width="170" height="12" as="geometry" />
        </mxCell>
        <mxCell id="8A16Rqu3GrUwaFn7HKT3-10" value="&lt;font style=&quot;font-size: 11px;&quot;&gt;CPC2&lt;/font&gt;" style="rounded=1;whiteSpace=wrap;html=1;fontStyle=1;fillColor=#fff2cc;strokeColor=#FFF2CC;" vertex="1" parent="8A16Rqu3GrUwaFn7HKT3-7">
          <mxGeometry x="10" y="10" width="63.52" height="40" as="geometry" />
        </mxCell>
        <mxCell id="8A16Rqu3GrUwaFn7HKT3-11" value="&lt;font style=&quot;font-size: 11px;&quot;&gt;≥ 200 nt&lt;/font&gt;" style="rounded=1;whiteSpace=wrap;html=1;fontStyle=1;fillColor=#FFF2CC;strokeColor=#FFF2CC;" vertex="1" parent="8A16Rqu3GrUwaFn7HKT3-7">
          <mxGeometry x="83.52000000000001" y="10" width="76.48" height="40" as="geometry" />
        </mxCell>
        <mxCell id="8A16Rqu3GrUwaFn7HKT3-12" style="edgeStyle=orthogonalEdgeStyle;rounded=0;orthogonalLoop=1;jettySize=auto;html=1;exitX=0.5;exitY=1;exitDx=0;exitDy=0;entryX=0.5;entryY=0;entryDx=0;entryDy=0;endArrow=blockThin;endFill=1;" edge="1" parent="RZr8qnZTbfW7pYuDrzdx-1" source="RZr8qnZTbfW7pYuDrzdx-26" target="8A16Rqu3GrUwaFn7HKT3-8">
          <mxGeometry relative="1" as="geometry" />
        </mxCell>
        <mxCell id="3knPNjsl8gJzGo3PYq72-0" style="edgeStyle=orthogonalEdgeStyle;rounded=0;orthogonalLoop=1;jettySize=auto;html=1;exitX=1;exitY=0.5;exitDx=0;exitDy=0;entryX=0;entryY=0.5;entryDx=0;entryDy=0;endArrow=blockThin;endFill=1;" edge="1" parent="RZr8qnZTbfW7pYuDrzdx-1">
          <mxGeometry relative="1" as="geometry">
            <mxPoint x="260" y="490" as="sourcePoint" />
            <mxPoint x="315" y="490" as="targetPoint" />
          </mxGeometry>
        </mxCell>
        <mxCell id="3knPNjsl8gJzGo3PYq72-1" style="edgeStyle=orthogonalEdgeStyle;rounded=0;orthogonalLoop=1;jettySize=auto;html=1;exitX=1;exitY=0.5;exitDx=0;exitDy=0;entryX=0;entryY=0.5;entryDx=0;entryDy=0;endArrow=blockThin;endFill=1;" edge="1" parent="RZr8qnZTbfW7pYuDrzdx-1">
          <mxGeometry relative="1" as="geometry">
            <Array as="points">
              <mxPoint x="290" y="490" />
              <mxPoint x="290" y="300" />
            </Array>
            <mxPoint x="260" y="490" as="sourcePoint" />
            <mxPoint x="420" y="300" as="targetPoint" />
          </mxGeometry>
        </mxCell>
      </root>
    </mxGraphModel>
  </diagram>
</mxfile>
